# Blender v2.72 (sub 0) OBJ File: 'fence.blend'
# www.blender.org
mtllib fence.mtl
o Cylinder.002
v 1.340152 -0.091930 -0.006655
v 1.291256 -0.091927 0.047039
v 1.232955 -0.091937 0.012586
v 1.271915 -0.091945 -0.059080
v 1.340736 0.746600 -0.048081
v 1.332065 0.746596 0.045765
v 1.231644 0.746577 0.044718
v 1.241309 0.746588 -0.061081
vt 0.984667 0.060885
vt 0.755619 0.086023
vt 0.854009 0.005987
vt 0.762767 0.238469
vt 0.783659 0.166775
vt 0.900738 0.172961
vt 0.896309 0.144369
vt 0.897751 0.251081
vt 0.398319 0.000258
vt 0.504424 0.000162
vt 0.433445 0.999583
vt 0.000000 0.000355
vt 0.117348 0.000235
vt 0.032408 0.999625
vt 0.387588 0.999333
vt 0.277424 0.999681
vt 0.348199 0.000122
vt 0.572288 0.000190
vt 0.679593 0.000202
vt 0.610079 0.999506
vt 0.691535 0.999662
vt 0.528568 0.999668
vt 0.140519 0.999732
vt 0.250857 0.000233
vn -0.000200 1.000000 0.000000
vn 0.000100 -1.000000 0.000100
vn -0.000100 1.000000 0.000100
vn 0.000100 -1.000000 0.000200
vn 0.995800 0.003900 0.092000
vn -0.010400 0.002000 0.999900
vn -0.995900 0.001900 -0.091000
vn 0.129700 0.002400 -0.991600
vn 0.608800 -0.039600 -0.792400
vn 0.738900 -0.034900 0.672900
vn -0.508500 -0.033800 0.860400
vn -0.878100 -0.033200 -0.477400
usemtl Material
s off
f 5/1/1 7/2/1 6/3/1
f 1/4/2 2/5/2 3/6/2
f 5/1/3 8/7/3 7/2/3
f 1/4/4 3/6/4 4/8/4
f 5/9/5 6/10/5 1/11/5
f 6/12/6 7/13/6 2/14/6
f 7/15/7 8/16/7 3/17/7
f 8/18/8 5/19/8 4/20/8
f 1/21/9 4/20/9 5/19/9
f 1/11/10 6/10/10 2/22/10
f 2/14/11 7/13/11 3/23/11
f 3/17/12 8/16/12 4/24/12
o Cube.003
v 0.040190 0.098473 -0.030584
v 0.040190 0.098473 0.017018
v 0.040190 0.158461 0.017018
v 0.040190 0.158460 -0.030584
v 1.227135 0.098473 -0.030584
v 1.227135 0.098473 0.017019
v 1.227135 0.194845 0.017018
v 1.227135 0.194845 -0.030584
vt 0.860352 0.081391
vt 0.999139 0.081268
vt 0.999675 0.131778
vt 0.860888 0.131901
vt 0.860352 0.081145
vt 0.861213 0.000000
vt 1.000000 0.000123
vt 0.700741 0.000000
vt 0.711357 0.999412
vt 0.572570 0.999535
vt 0.561954 0.000123
vt 0.291594 0.999661
vt 0.280977 0.000249
vt 0.561954 0.000000
vt 0.466491 0.999506
vt 0.850145 0.000000
vt 0.860352 0.999882
vt 0.721565 1.000000
vt 0.711357 0.000118
vt 0.000000 0.999412
vt 0.010618 0.000000
vt 0.185515 0.000155
vt 0.280977 0.999661
vn -1.000000 0.000000 0.000000
vn 1.000000 -0.000000 0.000000
vn -0.000000 -1.000000 0.000000
vn -0.000000 0.000000 1.000000
vn -0.030600 0.999500 -0.000000
vn 0.000000 -0.000000 -1.000000
usemtl Material
s off
f 9/25/13 10/26/13 11/27/13 12/28/13
f 13/29/14 16/30/14 15/31/14 14/26/14
f 9/32/15 13/33/15 14/34/15 10/35/15
f 10/36/16 14/37/16 15/38/16 11/39/16
f 11/40/17 15/41/17 16/42/17 12/43/17
f 13/44/18 9/45/18 12/46/18 16/47/18
o Cube.002
v 1.220584 0.671213 -0.030584
v 1.220584 0.671213 0.017018
v 1.220584 0.611225 0.017018
v 1.220584 0.611225 -0.030584
v 0.033639 0.671213 -0.030584
v 0.033639 0.671213 0.017019
v 0.033639 0.574841 0.017018
v 0.033639 0.574841 -0.030584
vt 0.860352 0.081391
vt 0.999139 0.081268
vt 0.999675 0.131778
vt 0.860888 0.131901
vt 0.860352 0.081145
vt 0.861213 0.000000
vt 1.000000 0.000123
vt 0.700741 0.000000
vt 0.711357 0.999412
vt 0.572570 0.999535
vt 0.561954 0.000123
vt 0.291594 0.999661
vt 0.280977 0.000249
vt 0.561954 0.000000
vt 0.466491 0.999506
vt 0.850145 0.000000
vt 0.860352 0.999882
vt 0.721565 1.000000
vt 0.711357 0.000118
vt 0.000000 0.999412
vt 0.010618 0.000000
vt 0.185515 0.000155
vt 0.280977 0.999661
vn 1.000000 -0.000000 0.000000
vn -1.000000 -0.000000 -0.000000
vn 0.000000 1.000000 0.000000
vn 0.000000 -0.000000 1.000000
vn 0.030600 -0.999500 -0.000000
vn -0.000000 0.000000 -1.000000
usemtl Material
s off
f 17/48/19 18/49/19 19/50/19 20/51/19
f 21/52/20 24/53/20 23/54/20 22/49/20
f 17/55/21 21/56/21 22/57/21 18/58/21
f 18/59/22 22/60/22 23/61/22 19/62/22
f 19/63/23 23/64/23 24/65/23 20/66/23
f 21/67/24 17/68/24 20/69/24 24/70/24
o Cube.001
v -0.063499 0.184551 -0.030584
v -0.063499 0.184551 0.017018
v -0.063499 0.124563 0.017018
v -0.063499 0.124564 -0.030584
v -1.250445 0.184551 -0.030584
v -1.250445 0.184551 0.017019
v -1.250445 0.088179 0.017018
v -1.250445 0.088180 -0.030584
vt 0.860352 0.081391
vt 0.999139 0.081268
vt 0.999675 0.131778
vt 0.860888 0.131901
vt 0.860352 0.081145
vt 0.861213 0.000000
vt 1.000000 0.000123
vt 0.700741 0.000000
vt 0.711357 0.999412
vt 0.572570 0.999535
vt 0.561954 0.000123
vt 0.291594 0.999661
vt 0.280977 0.000249
vt 0.561954 0.000000
vt 0.466491 0.999506
vt 0.850145 0.000000
vt 0.860352 0.999882
vt 0.721565 1.000000
vt 0.711357 0.000118
vt 0.000000 0.999412
vt 0.010618 0.000000
vt 0.185515 0.000155
vt 0.280977 0.999661
vn 1.000000 0.000000 0.000000
vn -1.000000 0.000000 0.000000
vn 0.000000 1.000000 0.000000
vn 0.000000 -0.000000 1.000000
vn 0.030600 -0.999500 -0.000000
vn -0.000000 0.000000 -1.000000
usemtl Material
s off
f 25/71/25 26/72/25 27/73/25 28/74/25
f 29/75/26 32/76/26 31/77/26 30/72/26
f 25/78/27 29/79/27 30/80/27 26/81/27
f 26/82/28 30/83/28 31/84/28 27/85/28
f 27/86/29 31/87/29 32/88/29 28/89/29
f 29/90/30 25/91/30 28/92/30 32/93/30
o Cylinder.001
v -1.249690 -0.091930 -0.006655
v -1.298586 -0.091927 0.047039
v -1.356887 -0.091937 0.012586
v -1.317927 -0.091945 -0.059080
v -1.249106 0.746600 -0.048081
v -1.257777 0.746596 0.045765
v -1.358199 0.746577 0.044718
v -1.348533 0.746588 -0.061081
vt 0.984667 0.060885
vt 0.755619 0.086023
vt 0.854009 0.005987
vt 0.762767 0.238469
vt 0.783659 0.166775
vt 0.900738 0.172961
vt 0.896309 0.144369
vt 0.897751 0.251081
vt 0.398319 0.000258
vt 0.504424 0.000162
vt 0.433445 0.999583
vt 0.000000 0.000355
vt 0.117348 0.000235
vt 0.032408 0.999625
vt 0.387588 0.999333
vt 0.277424 0.999681
vt 0.348199 0.000122
vt 0.572288 0.000190
vt 0.679593 0.000202
vt 0.610079 0.999506
vt 0.691535 0.999662
vt 0.528568 0.999668
vt 0.140519 0.999732
vt 0.250857 0.000233
vn -0.000200 1.000000 0.000000
vn 0.000100 -1.000000 0.000100
vn -0.000100 1.000000 0.000100
vn 0.000100 -1.000000 0.000200
vn 0.995800 0.003900 0.092000
vn -0.010400 0.002000 0.999900
vn -0.995900 0.001900 -0.091000
vn 0.129700 0.002400 -0.991600
vn 0.608800 -0.039600 -0.792400
vn 0.738900 -0.034900 0.672900
vn -0.508500 -0.033800 0.860400
vn -0.878100 -0.033200 -0.477400
usemtl Material
s off
f 37/94/31 39/95/31 38/96/31
f 33/97/32 34/98/32 35/99/32
f 37/94/33 40/100/33 39/95/33
f 33/97/34 35/99/34 36/101/34
f 37/102/35 38/103/35 33/104/35
f 38/105/36 39/106/36 34/107/36
f 39/108/37 40/109/37 35/110/37
f 40/111/38 37/112/38 36/113/38
f 33/114/39 36/113/39 37/112/39
f 33/104/40 38/103/40 34/115/40
f 34/107/41 39/106/41 35/116/41
f 35/110/42 40/109/42 36/117/42
o Cylinder
v 0.044341 -0.091930 -0.006655
v -0.004554 -0.091927 0.047039
v -0.062855 -0.091937 0.012586
v -0.023895 -0.091945 -0.059080
v 0.044926 0.746600 -0.048081
v 0.036255 0.746596 0.045765
v -0.064167 0.746577 0.044718
v -0.054501 0.746588 -0.061081
vt 0.984667 0.060885
vt 0.755619 0.086023
vt 0.854009 0.005987
vt 0.762767 0.238469
vt 0.783659 0.166775
vt 0.900738 0.172961
vt 0.896309 0.144369
vt 0.897751 0.251081
vt 0.398319 0.000258
vt 0.504424 0.000162
vt 0.433445 0.999583
vt 0.000000 0.000355
vt 0.117348 0.000235
vt 0.032408 0.999625
vt 0.387588 0.999333
vt 0.277424 0.999681
vt 0.348199 0.000122
vt 0.572288 0.000190
vt 0.679593 0.000202
vt 0.610079 0.999506
vt 0.691535 0.999662
vt 0.528568 0.999668
vt 0.140519 0.999732
vt 0.250857 0.000233
vn -0.000200 1.000000 0.000000
vn 0.000100 -1.000000 0.000100
vn -0.000100 1.000000 0.000100
vn 0.000100 -1.000000 0.000200
vn 0.995800 0.003900 0.092000
vn -0.010400 0.002000 0.999900
vn -0.995900 0.001900 -0.091000
vn 0.129700 0.002400 -0.991600
vn 0.608800 -0.039600 -0.792400
vn 0.738900 -0.034900 0.672900
vn -0.508500 -0.033800 0.860400
vn -0.878100 -0.033200 -0.477400
usemtl Material
s off
f 45/118/43 47/119/43 46/120/43
f 41/121/44 42/122/44 43/123/44
f 45/118/45 48/124/45 47/119/45
f 41/121/46 43/123/46 44/125/46
f 45/126/47 46/127/47 41/128/47
f 46/129/48 47/130/48 42/131/48
f 47/132/49 48/133/49 43/134/49
f 48/135/50 45/136/50 44/137/50
f 41/138/51 44/137/51 45/136/51
f 41/128/52 46/127/52 42/139/52
f 42/131/53 47/130/53 43/140/53
f 43/134/54 48/133/54 44/141/54
o Cube
v -1.249757 0.602725 -0.030584
v -1.249757 0.602725 0.017018
v -1.249757 0.662713 0.017018
v -1.249757 0.662712 -0.030584
v -0.062812 0.602725 -0.030584
v -0.062812 0.602725 0.017019
v -0.062812 0.699097 0.017018
v -0.062812 0.699097 -0.030584
vt 0.860352 0.081391
vt 0.999139 0.081268
vt 0.999675 0.131778
vt 0.860888 0.131901
vt 0.860352 0.081145
vt 0.861213 0.000000
vt 1.000000 0.000123
vt 0.700741 0.000000
vt 0.711357 0.999412
vt 0.572570 0.999535
vt 0.561954 0.000123
vt 0.291594 0.999661
vt 0.280977 0.000249
vt 0.561954 0.000000
vt 0.466491 0.999506
vt 0.850145 0.000000
vt 0.860352 0.999882
vt 0.721565 1.000000
vt 0.711357 0.000118
vt 0.000000 0.999412
vt 0.010618 0.000000
vt 0.185515 0.000155
vt 0.280977 0.999661
vn -1.000000 0.000000 0.000000
vn 1.000000 0.000000 -0.000000
vn 0.000000 -1.000000 0.000000
vn -0.000000 0.000000 1.000000
vn -0.030600 0.999500 -0.000000
vn 0.000000 -0.000000 -1.000000
usemtl Material
s off
f 49/142/55 50/143/55 51/144/55 52/145/55
f 53/146/56 56/147/56 55/148/56 54/143/56
f 49/149/57 53/150/57 54/151/57 50/152/57
f 50/153/58 54/154/58 55/155/58 51/156/58
f 51/157/59 55/158/59 56/159/59 52/160/59
f 53/161/60 49/162/60 52/163/60 56/164/60
