# Blender v2.72 (sub 0) OBJ File: 'groundShrubs_c.blend'
# www.blender.org
mtllib groundShrubs_c.mtl
o shrubc
v -0.226384 0.006018 0.138138
v -0.013952 -0.006477 -0.128958
v -0.217755 0.649431 0.101987
v -0.315220 0.309797 0.237138
v -0.047647 0.734139 -0.263521
v 0.117263 0.455798 -0.296940
v 0.073427 0.110695 -0.246267
v 0.011012 -0.009800 0.126487
v 0.054701 0.688720 0.289557
v 0.123402 0.596362 0.001791
v -0.084343 0.621234 0.409072
v -0.232172 0.402037 0.563796
v -0.166156 0.165747 0.526868
v 0.383877 0.587081 0.386293
v 0.209862 -0.009614 0.121142
v 0.178286 0.593628 0.277438
v 0.112499 0.580404 0.141912
v 0.417217 0.171904 0.359687
v 0.214009 -0.009661 0.109145
v 0.435784 0.661838 0.213919
v 0.476111 0.546765 -0.058818
v 0.233025 0.639984 0.354976
v -0.020526 0.467799 0.550484
v 0.068818 0.208285 0.509147
v -0.270273 0.547880 -0.211814
v -0.051377 -0.004082 -0.100811
v -0.034449 0.327354 -0.316085
v -0.298782 0.470192 -0.061271
v -0.324965 0.251137 -0.008814
v -0.209861 0.029632 -0.063926
v -0.160754 0.250634 -0.091883
v 0.211728 0.224918 0.057377
v -0.028489 -0.008194 -0.143687
v -0.179846 0.597457 -0.074151
v 0.112078 0.496267 0.039112
v -0.468719 0.430054 -0.368201
v -0.289988 0.184883 -0.412881
v -0.141419 -0.010644 -0.228644
v -0.212245 0.794088 0.420697
v -0.013296 -0.006261 0.144459
v -0.272727 0.499988 0.084906
v 0.005337 0.701101 0.486745
v 0.257875 0.446318 0.400145
v 0.153268 0.085438 0.302454
v 0.004917 0.380896 0.266575
v -0.007713 -0.011880 -0.002131
v -0.024607 0.762593 0.254662
v -0.219441 0.535570 0.293254
v 0.171896 0.680112 0.270549
v 0.336839 0.653164 0.158872
v 0.341262 0.333104 -0.061446
v 0.300271 0.718716 -0.069061
v 0.111673 -0.011935 -0.083654
v 0.511675 0.560199 -0.148036
v 0.645557 0.432344 -0.027057
v -0.052342 0.396881 -0.011892
v 0.043139 0.120274 -0.352184
v 0.101964 -0.007641 -0.082907
v 0.312595 0.632613 -0.078876
v 0.151092 0.399918 -0.382717
v 0.269893 0.571259 0.220319
v 0.165798 0.298295 0.194150
v 0.163483 0.044267 0.048415
vt 0.222656 0.980469
vt 0.250000 0.496094
vt 0.004883 0.802734
vt 0.503906 0.944336
vt 0.498047 0.738281
vt 0.367188 0.538086
vt 0.024414 0.590820
vt 0.822266 0.500000
vt 0.678711 0.499023
vt 0.749023 -0.003906
vt 0.509766 0.382812
vt 0.991211 0.208008
vt 0.986328 0.391602
vt 0.248047 -0.003906
vt 0.466797 0.182617
vt 0.336914 0.497070
vt 0.156250 0.497070
vt 0.042969 0.419922
vt 0.776367 0.733398
vt 0.652344 1.010742
vt 0.525391 0.795898
vt 0.749023 0.497070
vt 0.844727 0.951172
vt 0.941406 0.787109
vt 0.881836 0.590820
vn -0.794700 -0.125200 -0.594000
vn -0.785500 -0.026800 -0.618300
vn -0.782100 -0.024300 -0.622600
vn -0.786500 -0.410600 -0.461200
vn -0.789900 -0.133700 -0.598500
vn -0.779800 -0.017000 -0.625800
vn -0.783000 -0.026400 -0.621500
vn -0.759800 0.118600 -0.639300
vn -0.836700 0.173600 -0.519400
vn -0.895200 0.104000 -0.433400
vn -0.955800 0.122200 -0.267400
vn -0.856200 0.020300 -0.516300
vn -0.668900 -0.071200 -0.740000
vn -0.687900 -0.161400 0.707600
vn -0.711200 -0.101700 0.695600
vn -0.539800 -0.205400 0.816400
vn -0.676300 -0.217700 0.703700
vn -0.881600 -0.161100 0.443700
vn 0.677200 -0.201200 0.707700
vn 0.840800 -0.263100 0.473200
vn 0.750900 -0.336700 0.568100
vn 0.898900 -0.340000 0.276400
vn 0.810600 -0.102400 0.576500
vn 0.578900 0.069900 0.812400
vn -0.618800 -0.255300 -0.742900
vn -0.751200 -0.465600 -0.467900
vn -0.726100 -0.412400 -0.550200
vn -0.508100 -0.188700 -0.840400
vn -0.732800 -0.382200 -0.563000
vn -0.449600 -0.095000 -0.888200
vn -0.312700 -0.050500 -0.948500
vn 0.555600 0.280000 -0.782900
vn 0.459700 0.186500 -0.868300
vn 0.540200 0.210900 -0.814700
vn 0.734000 0.303100 -0.607800
vn 0.473600 0.479900 -0.738500
vn 0.707400 0.215700 -0.673100
vn 0.548000 0.145800 -0.823700
vn -0.515000 -0.338800 0.787300
vn -0.523000 -0.525300 0.671300
vn -0.616200 -0.423700 0.663900
vn -0.604000 -0.213800 0.767800
vn -0.391300 -0.521100 0.758600
vn -0.359900 -0.363200 0.859400
vn -0.553100 -0.178900 0.813700
vn -0.120900 0.414100 -0.902200
vn -0.397700 0.380400 -0.834900
vn -0.082000 0.312100 -0.946500
vn -0.477200 0.267200 -0.837200
vn -0.524000 0.441200 -0.728500
vn -0.423700 0.509600 -0.748800
vn -0.102000 -0.026400 -0.994400
vn -0.228900 0.078500 -0.970300
vn -0.267500 0.088200 -0.959500
vn 0.039000 -0.138600 -0.989600
vn 0.399600 -0.373600 -0.837100
vn 0.952100 -0.301200 -0.052800
vn 0.897800 -0.315600 -0.307100
vn 0.903500 -0.319200 -0.285900
vn 0.930800 -0.360600 0.058900
vn 0.946200 -0.228700 0.228800
vn 0.953100 -0.270800 -0.135300
vn 0.855400 -0.369800 -0.362600
usemtl groundShrubs
s 1
f 3/1/1 2/2/2 4/3/3
f 3/1/1 5/4/4 6/5/5
f 2/2/2 3/1/1 7/6/6
f 2/2/2 1/7/7 4/3/3
f 3/1/1 6/5/5 7/6/6
f 11/8/8 9/9/9 8/10/10
f 8/10/10 9/9/9 10/11/11
f 13/12/12 11/8/8 8/10/10
f 12/13/13 11/8/8 13/12/12
f 15/14/14 18/15/15 14/16/16
f 15/14/14 14/16/16 16/17/17
f 16/17/17 17/18/18 15/14/14
f 22/8/19 19/10/20 20/9/21
f 19/10/20 21/11/22 20/9/21
f 24/12/23 19/10/20 22/8/19
f 23/13/24 24/12/23 22/8/19
f 31/19/25 25/20/26 27/21/27
f 27/21/27 26/22/28 31/19/25
f 31/19/25 28/23/29 25/20/26
f 31/19/25 29/24/30 28/23/29
f 31/19/25 30/25/31 29/24/30
f 26/22/28 30/25/31 31/19/25
f 34/1/32 35/3/33 33/2/34
f 34/1/32 37/5/35 36/4/36
f 33/2/34 38/6/37 34/1/32
f 33/2/34 35/3/33 32/7/38
f 34/1/32 38/6/37 37/5/35
f 45/19/39 39/20/40 41/21/41
f 41/21/41 40/22/42 45/19/39
f 45/19/39 42/23/43 39/20/40
f 45/19/39 43/24/44 42/23/43
f 45/19/39 44/25/45 43/24/44
f 40/22/42 44/25/45 45/19/39
f 49/8/46 46/10/47 47/9/48
f 46/10/47 48/11/49 47/9/48
f 51/12/50 46/10/47 49/8/46
f 50/13/51 51/12/50 49/8/46
f 53/14/52 56/15/53 52/16/54
f 53/14/52 52/16/54 54/17/55
f 54/17/55 55/18/56 53/14/52
f 59/1/57 58/2/58 60/3/59
f 59/1/57 61/4/60 62/5/61
f 58/2/58 59/1/57 63/6/62
f 58/2/58 57/7/63 60/3/59
f 59/1/57 62/5/61 63/6/62
