# Blender v2.72 (sub 0) OBJ File: 'granite_c_lod1.blend'
# www.blender.org
mtllib granite_c_lod1.mtl
o eggy64_Cube.001
v -0.389292 1.612551 0.171987
v 0.099136 -1.459990 0.258517
v 0.772202 1.324948 -0.081386
v -0.256195 -0.526182 -1.137189
v -0.559776 0.342810 -0.573382
v -0.158764 -1.281540 -0.384966
v -0.524423 0.432479 0.787701
v 0.932451 -0.607839 -0.227200
v -1.093515 -0.649388 -0.603637
v -0.505444 1.226457 -0.455585
v -1.135572 -0.549814 0.498653
v 0.046840 -0.731681 1.220238
v 0.120592 1.786232 0.086602
v 0.630574 -1.202698 -0.679057
v -0.304785 0.145978 -0.891959
v 0.016146 0.620769 -0.909943
v 0.452123 -0.135500 1.141250
v -1.130221 -0.166006 0.186344
v 0.314849 1.683197 -0.341839
v -0.428584 -0.716892 1.145096
v 0.870547 0.725702 -0.504836
v 0.021765 -0.935585 -1.087523
v -0.455645 -1.267737 0.487324
v -0.044823 1.081432 0.945116
v -0.609120 0.931292 0.231642
v -0.189082 1.229367 -0.832539
v 0.547181 -0.563662 -1.095488
v 0.683749 0.082203 -0.934420
v -0.974175 0.570329 0.115774
v 1.133191 -0.567730 0.116253
v -1.005257 0.410023 -0.245397
v 0.303079 -1.182518 0.818926
v 0.906910 0.987323 0.560331
v 1.292423 -0.255603 0.534055
v -0.324920 1.518754 0.535335
v 1.233368 0.169284 0.020482
v -1.165671 -0.966326 -0.100819
v 0.803678 -1.350217 0.312461
v 0.870741 -0.618222 -0.736718
vt 0.605864 -0.542745
vt 0.637906 -0.862741
vt 0.757369 -0.486914
vt -0.553658 -0.996139
vt -0.936007 -0.711680
vt -1.194299 -1.186808
vt 0.306197 -0.560624
vt 0.466045 -0.625724
vt 0.315020 -0.131117
vt -0.137741 -0.330087
vt 0.188194 -0.371102
vt 0.080587 0.309530
vt 1.015357 -0.404021
vt 1.055369 -0.069009
vt 0.110496 -1.361128
vt 0.185850 -0.925511
vt -0.080647 0.963152
vt 0.278388 0.563685
vt 0.361686 0.739846
vt -1.415894 0.092733
vt -1.513423 -0.378914
vt -1.195408 0.159706
vt 0.887038 -1.195957
vt 0.507393 0.310021
vt 0.742875 0.832207
vt 0.920528 -0.690046
vt 0.712031 -0.107460
vt 0.908046 0.269386
vt -0.744664 -0.549561
vt -0.439764 -0.645012
vt -0.273773 0.363898
vt -0.500831 0.005419
vt -0.836167 -0.337301
vt -0.816751 0.133452
vt -0.877762 0.808724
vt -1.060101 1.057297
vt -0.670525 0.432292
vt -0.460240 0.609166
vt -0.551435 0.755786
vt -1.526537 0.483034
vt -1.378250 -0.757367
vt -0.252952 -0.653856
vt -0.110935 -0.929677
vt -1.107117 -0.535590
vt -0.983822 0.068950
vt -0.252461 -1.327719
vn 0.915600 -0.124500 -0.382200
vn 0.497200 -0.733300 -0.463700
vn 0.397800 -0.083200 -0.913700
vn -0.394600 -0.853000 0.341500
vn -0.814100 -0.575200 -0.079900
vn -0.233400 -0.915900 -0.326500
vn 0.902000 -0.318900 -0.290900
vn 0.912700 -0.242300 -0.328900
vn 0.969000 0.105900 -0.223100
vn 0.292000 0.038200 0.955600
vn 0.913800 -0.114700 0.389600
vn 0.713100 0.484700 0.506500
vn -0.288600 0.029600 -0.957000
vn -0.435700 0.249400 -0.864800
vn -0.071300 -0.992900 0.095400
vn 0.613800 -0.766400 0.189400
vn 0.084300 0.989300 0.118700
vn 0.780100 0.613700 -0.121800
vn 0.272400 0.846500 -0.457400
vn -0.586900 0.221900 -0.778600
vn 0.727200 0.330700 -0.601500
vn -0.244700 0.468400 -0.848900
vn -0.092800 -0.562600 -0.821500
vn 0.531900 0.179400 -0.827500
vn -0.050100 0.171600 -0.983900
vn -0.873000 -0.117800 0.473300
vn -0.403600 -0.274100 0.872900
vn -0.093200 0.430600 0.897700
vn -0.602400 0.242700 0.760400
vn -0.963800 0.201800 0.173800
vn -0.871300 0.423100 0.248600
vn -0.741400 0.534300 -0.406000
vn -0.845300 0.447600 0.291800
vn -0.466000 0.669500 0.578400
vn -0.664000 0.747700 0.000100
vn 0.101200 -0.305900 0.946700
vn 0.216700 -0.684400 0.696100
vn -0.783800 -0.193800 -0.590000
vn -0.863900 0.295800 -0.407600
usemtl Material
s 1
f 39/1/1 14/2/2 27/3/3
f 23/4/4 37/5/5 6/6/6
f 30/7/7 8/8/8 36/9/9
f 17/10/10 34/11/11 33/12/12
f 27/3/3 4/13/13 15/14/14
f 2/15/15 14/2/2 38/16/16
f 13/17/17 3/18/18 19/19/19
f 15/20/14 4/21/13 5/22/20
f 14/2/2 2/15/15 6/23/6
f 19/19/19 21/24/21 26/25/22
f 22/26/23 4/13/13 27/3/3
f 28/27/24 16/28/25 21/24/21
f 11/29/26 23/4/4 20/30/27
f 15/14/14 28/27/24 27/3/3
f 24/31/28 33/12/12 13/17/17
f 39/1/1 8/8/8 14/2/2
f 20/30/27 17/10/10 7/32/29
f 18/33/30 7/32/29 29/34/31
f 5/22/20 10/35/32 26/36/22
f 25/37/33 7/32/29 35/38/34
f 10/35/32 1/39/35 13/17/17
f 28/27/24 15/14/14 16/28/25
f 13/17/17 26/36/22 10/35/32
f 35/38/34 24/31/28 13/17/17
f 25/37/33 29/34/31 7/32/29
f 5/22/20 26/36/22 16/40/25
f 1/39/35 10/35/32 25/37/33
f 34/11/11 38/16/16 30/7/7
f 19/19/19 26/25/22 13/17/17
f 37/5/5 22/41/23 6/6/6
f 20/30/27 12/42/36 17/10/10
f 32/43/37 23/4/4 2/15/15
f 27/3/3 28/27/24 39/1/1
f 16/28/25 26/25/22 21/24/21
f 5/22/20 9/44/38 31/45/39
f 6/23/6 22/26/23 14/2/2
f 32/43/37 38/16/16 34/11/11
f 32/43/37 2/15/15 38/16/16
f 21/24/21 3/18/18 36/9/9
f 21/24/21 19/19/19 3/18/18
f 17/10/10 24/31/28 7/32/29
f 12/42/36 20/30/27 23/4/4
f 38/16/16 14/2/2 8/8/8
f 31/45/39 29/34/31 10/35/32
f 12/42/36 23/4/4 32/43/37
f 32/43/37 17/10/10 12/42/36
f 27/3/3 14/2/2 22/26/23
f 17/10/10 33/12/12 24/31/28
f 16/40/25 15/20/14 5/22/20
f 11/29/26 18/33/30 37/5/5
f 11/29/26 20/30/27 7/32/29
f 29/34/31 25/37/33 10/35/32
f 21/24/21 36/9/9 28/27/24
f 13/17/17 1/39/35 35/38/34
f 34/11/11 17/10/10 32/43/37
f 38/16/16 8/8/8 30/7/7
f 31/45/39 9/44/38 18/33/30
f 18/33/30 29/34/31 31/45/39
f 23/4/4 6/6/6 2/46/15
f 35/38/34 1/39/35 25/37/33
f 23/4/4 11/29/26 37/5/5
f 9/44/38 37/5/5 18/33/30
f 9/44/38 22/41/23 37/5/5
f 18/33/30 11/29/26 7/32/29
f 33/12/12 34/11/11 36/9/9
f 28/27/24 8/8/8 39/1/1
f 34/11/11 30/7/7 36/9/9
f 31/45/39 10/35/32 5/22/20
f 8/8/8 28/27/24 36/9/9
f 3/18/18 13/17/17 33/12/12
f 24/31/28 35/38/34 7/32/29
f 9/44/38 4/21/13 22/41/23
f 3/18/18 33/12/12 36/9/9
f 4/21/13 9/44/38 5/22/20
