# Blender v2.72 (sub 0) OBJ File: 'granite_b_lod1.blend'
# www.blender.org
mtllib granite_b_lod1.mtl
o cubicflat64_Cube.001
v 0.764291 -0.741793 -0.339947
v 0.047229 0.355387 -0.417839
v 1.260747 0.179046 -0.189918
v -0.704034 -0.171803 0.661077
v 0.910489 0.139095 0.657059
v -0.367787 -0.213827 0.951547
v -0.830076 0.634138 -0.518554
v 0.108196 -0.066672 -0.987291
v 0.851291 -0.572912 0.299287
v -1.278593 -0.151291 -0.186437
v -0.276288 0.045905 0.966825
v 0.467957 -0.045586 -0.843584
v -1.127907 0.351396 -0.556789
v -0.893344 -0.502534 -0.392725
v -0.736537 -0.811233 -0.163162
v -1.148953 -0.031811 -0.531979
v -0.545314 -0.747657 0.248942
v 0.196780 -0.609771 0.211504
v -0.211167 0.330936 0.676204
v 0.277286 0.449186 0.505409
v -1.005249 0.228359 0.105423
v -0.030145 0.415921 -0.271598
v 0.653325 -0.401408 -0.765528
v -0.048047 -0.755632 -0.594704
v 0.893921 -0.129526 -0.732484
v -1.179491 -0.115050 0.129984
v 0.298074 -0.048687 0.843517
v 0.174088 0.137736 -0.589260
v 1.047344 -0.517721 -0.459956
v 0.931993 0.681283 0.053093
v 0.979804 0.618048 0.261638
v 0.377401 0.216675 0.822532
v 1.211745 0.032276 -0.467694
v 0.821020 0.040014 0.763670
v 1.074565 -0.614757 -0.086907
v -0.854133 -0.580047 0.377919
v -0.814877 0.513224 -0.788487
v -0.095108 -0.209288 -1.020874
v -0.679747 0.496277 0.131238
vt 0.787527 0.731043
vt 0.074552 0.979383
vt -0.332712 0.392420
vt -0.517120 0.177069
vt -0.148395 -0.408641
vt -0.379479 0.390302
vt 0.217225 0.508638
vt 0.361597 0.048208
vt 0.429304 0.493778
vt 0.193342 0.095489
vt 0.367834 -0.620676
vt 0.437715 0.019055
vt -0.629236 0.536142
vt -0.145064 0.649613
vt -0.223648 0.145482
vt 0.657670 -0.888427
vt 0.268916 -0.714047
vt 0.155949 -0.898933
vt 0.273882 0.024532
vt -0.222244 0.130508
vt -0.134011 -0.588152
vt 0.217225 0.789552
vt 0.424280 0.711072
vt -0.026032 0.237938
vt -0.407823 0.267589
vt -0.530817 0.523972
vt -0.380177 0.723296
vt 0.397380 -0.599980
vt 1.012521 -0.620676
vt 0.269131 -0.779523
vt -0.790981 -0.143679
vt 0.602924 0.571121
vt -0.346331 0.807787
vt 0.131701 -0.590534
vt 0.107595 -0.805245
vt -0.176000 -0.888093
vt -0.456664 -0.589577
vt -0.213527 -0.168509
vt -0.197152 -0.680337
vt 0.499640 -0.315437
vt 0.347466 -0.613119
vt -0.390752 -0.219817
vt 0.044585 -0.017551
vt 0.336371 -0.177135
vt -0.523140 0.089928
vt -0.637629 -0.041890
vt -0.362099 -0.432413
vt 0.918648 -0.041890
vt -0.654050 -0.242952
vt 0.578368 0.250445
vt 0.198006 0.857957
vt -0.199319 0.802604
vt -0.021961 0.588517
vt -0.599733 0.376502
vt -0.349938 0.746020
vt 0.699225 0.020966
vt 0.519838 0.492921
vt 0.770822 -0.233466
vt 0.839263 0.213363
vt 0.198006 -0.545556
vt 0.483507 -0.166419
vt 0.908032 -0.010522
vt 0.626435 -0.231536
vt 0.358220 0.198934
vt 0.610889 -0.330197
vt -0.393715 -0.496468
vt -0.072610 0.173003
vt -0.581501 -0.647867
vt -0.482397 0.151044
vt 0.916508 0.176643
vt 0.979635 0.105192
vt 0.065200 -0.880711
vt -0.166902 -0.550672
vt -0.459087 0.178974
vt -0.777208 0.282051
vt -0.653775 0.466011
vt 0.559402 0.754395
vn 0.307100 0.937300 -0.164900
vn 0.805400 0.215400 -0.552200
vn 0.254100 0.438900 -0.861800
vn 0.512400 -0.065700 0.856200
vn 0.734600 -0.661200 0.152400
vn 0.725200 0.206500 0.656800
vn 0.534200 0.738200 0.411900
vn 0.966400 0.250600 -0.056800
vn 0.172700 0.848100 -0.500800
vn -0.241500 0.966200 -0.090200
vn 0.064000 0.991300 -0.115000
vn 0.229100 -0.951400 -0.205600
vn 0.395700 -0.740800 0.542800
vn 0.070700 -0.903500 0.422600
vn -0.732900 -0.233200 -0.639100
vn -0.564000 -0.593300 -0.574300
vn -0.986200 -0.163700 -0.024800
vn -0.043400 -0.892200 -0.449600
vn -0.381400 -0.912400 -0.148600
vn -0.121100 0.928800 0.350200
vn 0.129200 0.477500 0.869100
vn -0.262800 0.881200 0.392900
vn -0.700300 0.550900 0.453800
vn -0.244300 0.575400 -0.780500
vn -0.853500 0.403200 -0.330000
vn -0.689000 0.131300 0.712700
vn -0.247000 0.832900 0.495300
vn -0.598500 -0.618500 0.509100
vn -0.188200 -0.384600 0.903700
vn -0.889600 0.059200 0.452900
vn 0.265900 0.355100 -0.896200
vn -0.102800 -0.246400 -0.963700
vn -0.017200 -0.927200 0.374000
vn -0.231900 0.346200 0.909000
vn 0.171700 -0.367600 0.914000
vn 0.692800 -0.534600 -0.483900
vn 0.301700 -0.446400 -0.842400
vn 0.471100 0.120800 -0.873700
vn 0.043000 0.678300 -0.733500
usemtl Material
s 1
f 30/1/1 33/2/2 12/3/3
f 34/4/4 35/5/5 5/6/6
f 31/7/7 3/8/8 30/9/1
f 5/6/6 35/5/5 3/8/8
f 2/10/9 7/11/10 22/12/11
f 1/13/12 9/14/13 18/15/14
f 16/16/15 14/17/16 10/18/17
f 24/19/18 18/20/14 15/21/19
f 31/22/7 30/23/1 20/24/20
f 32/25/21 34/26/4 5/27/6
f 14/17/16 24/19/18 15/21/19
f 39/28/22 7/29/10 21/30/23
f 31/7/7 5/6/6 3/8/8
f 1/13/12 18/15/14 24/31/18
f 34/32/4 9/14/13 35/33/5
f 2/10/9 37/34/24 7/11/10
f 13/35/25 37/34/24 16/36/15
f 39/28/22 4/37/26 19/38/27
f 36/39/28 6/40/29 4/41/26
f 36/42/28 26/43/30 10/44/17
f 8/45/31 38/46/32 37/34/24
f 17/47/33 6/40/29 36/39/28
f 38/48/32 24/19/18 14/17/16
f 4/37/26 11/49/34 19/38/27
f 37/34/24 13/35/25 7/11/10
f 18/15/14 27/50/35 17/47/33
f 29/51/36 35/52/5 1/53/12
f 11/49/34 32/25/21 19/38/27
f 23/54/37 12/3/3 25/55/38
f 14/17/16 16/16/15 38/48/32
f 32/25/21 31/22/7 20/24/20
f 19/38/27 20/24/20 22/56/11
f 24/19/18 38/48/32 23/57/37
f 11/58/34 6/40/29 32/59/21
f 29/60/36 33/61/2 35/5/5
f 30/1/1 12/3/3 2/10/9
f 10/44/17 13/62/25 16/63/15
f 9/14/13 34/32/4 27/50/35
f 10/44/17 21/64/23 13/62/25
f 21/64/23 10/44/17 26/43/30
f 32/59/21 27/50/35 34/32/4
f 25/65/38 33/61/2 29/60/36
f 38/46/32 16/36/15 37/34/24
f 2/10/9 8/45/31 37/34/24
f 33/61/2 30/9/1 3/8/8
f 17/66/33 15/21/19 18/20/14
f 12/3/3 28/67/39 2/10/9
f 1/53/12 24/19/18 23/57/37
f 27/50/35 32/59/21 6/40/29
f 21/30/23 4/37/26 39/28/22
f 15/68/19 17/47/33 36/39/28
f 10/18/17 14/17/16 15/21/19
f 36/42/28 4/69/26 26/43/30
f 29/51/36 1/53/12 23/57/37
f 28/67/39 8/45/31 2/10/9
f 12/3/3 23/54/37 8/45/31
f 27/50/35 18/15/14 9/14/13
f 39/28/22 22/56/11 7/29/10
f 8/45/31 28/67/39 12/3/3
f 13/62/25 21/64/23 7/70/10
f 23/57/37 38/48/32 8/71/31
f 5/27/6 31/22/7 32/25/21
f 19/38/27 22/56/11 39/28/22
f 35/33/5 9/14/13 1/13/12
f 19/38/27 32/25/21 20/24/20
f 2/10/9 22/12/11 30/1/1
f 3/8/8 35/5/5 33/61/2
f 27/50/35 6/40/29 17/47/33
f 30/23/1 22/56/11 20/24/20
f 25/55/38 12/3/3 33/2/2
f 21/30/23 26/72/30 4/37/26
f 10/44/17 15/73/19 36/42/28
f 4/74/26 6/75/29 11/76/34
f 25/77/38 29/51/36 23/57/37
