# Blender v2.72 (sub 0) OBJ File: 'granite_c.blend'
# www.blender.org
mtllib granite_c.mtl
o eggy128_Cube
v -0.285493 1.671908 0.138377
v 0.250523 -1.440837 0.390580
v 0.745037 1.365896 -0.099630
v -0.273868 -0.301589 -1.062387
v -0.591050 0.110357 -0.637865
v -0.395236 -1.195922 -0.144121
v -0.263593 0.334738 0.899406
v 0.907914 -0.442970 -0.253139
v -1.176415 -0.619209 -0.432928
v 0.924907 1.012314 0.052124
v -0.671767 0.968736 -0.371302
v -0.917787 -0.616282 0.727499
v 0.357579 -0.486910 1.106742
v 0.097052 1.770402 0.003633
v 0.351778 -1.337076 -0.436412
v -0.081013 -0.642440 -1.160101
v -0.299719 0.176924 -0.891911
v -0.460450 1.081760 -0.647778
v -0.035991 0.819477 -0.864993
v 0.726381 -0.013002 0.995901
v 0.848054 -0.886883 -0.099370
v -1.003665 -0.239439 -0.532688
v -0.928171 -0.069186 0.491350
v 0.482917 1.568526 -0.348187
v 0.147871 0.342252 1.043737
v 0.423828 0.593313 0.893795
v 0.250244 -1.417879 -0.032384
v -0.536530 1.089885 0.024203
v -0.506517 -0.299784 0.989411
v -0.353285 0.710732 0.799859
v 0.774852 1.033619 -0.427242
v 0.188042 -0.920842 -1.090136
v -0.630237 -0.991860 0.651435
v -0.249302 -1.240156 0.657815
v 0.039013 -1.169339 -0.576500
v -0.292297 0.558512 -0.711629
v -0.146442 1.253947 0.812815
v -0.059025 1.618007 -0.128911
v 0.362912 -0.124839 1.162557
v -0.570196 0.703822 0.429812
v -0.601133 -0.007664 0.892146
v -0.055713 -1.352890 -0.276499
v 0.177348 1.183448 -0.773579
v 0.547181 -0.563662 -1.095488
v 0.849674 0.466318 0.785363
v 0.377253 0.350476 -0.929568
v -0.850258 0.757453 0.077086
v -0.147397 -1.385504 0.133004
v 0.161687 -0.978104 1.039993
v -1.186927 -0.532684 0.350765
v 1.101532 -0.160030 -0.119200
v 0.012165 1.478140 -0.507186
v 0.895320 0.664155 -0.504501
v 0.787229 -0.171269 -0.826958
v 0.335672 1.332393 0.555056
v -0.950790 -0.728238 -0.707725
v -0.952799 0.547261 -0.263599
v -0.529697 -0.190340 -0.769497
v 0.666483 -0.953429 0.688128
v 0.756946 1.247977 0.377335
v 0.252213 1.066702 0.908385
v -0.025781 0.428491 -0.938904
v 0.548572 -0.597358 0.820258
v 1.194321 0.096921 0.607741
v -0.568323 1.017393 0.297037
v 0.919422 -0.153184 -0.439223
v 0.108110 1.546117 0.441632
v -0.416799 1.201103 0.592173
v 1.069045 0.283754 -0.328576
v -0.661593 0.347508 0.721559
v -0.312576 -1.009942 -0.878966
v 0.017017 -0.597800 1.226915
v 0.331406 -1.220129 0.791531
v -0.116845 -0.075367 0.971141
v -0.416121 -0.522020 1.121032
v -0.795344 -1.093386 -0.409039
v 1.248281 0.152093 0.092627
v 0.704734 -1.138582 -0.639559
v -0.423829 1.416293 -0.209188
v 0.945267 -1.123522 0.330419
v 1.078553 0.690799 0.424874
v 0.870741 -0.618222 -0.736718
v 0.429988 1.581887 0.196084
v 0.516084 -1.059986 -0.892240
v -0.456601 1.459829 0.261756
v 0.780027 0.247621 -0.808133
v 1.119126 -0.597088 0.101063
v -1.004039 0.417302 0.215888
v 0.649283 -1.296463 -0.232253
v 0.090111 -0.059728 -0.929666
v 1.068982 -0.615745 0.585056
v 0.221402 1.714926 -0.280906
v -1.212377 -0.845047 0.036988
v -0.716959 -1.174568 0.275764
v -0.452038 -0.844841 1.057096
v 1.321337 -0.276092 0.404448
v 0.994724 0.661491 -0.106225
v -0.250616 1.250698 -0.774289
v 0.569174 -0.053133 -0.988217
v 0.869228 -0.761396 -0.328805
v -0.503831 0.477709 -0.605493
v -1.132888 -0.193939 -0.008278
v -0.344964 -1.214419 -0.522477
v 0.691302 0.992790 0.721263
v 0.657625 -1.399714 0.386195
v 0.497980 0.708085 -0.695857
v -0.661658 0.281655 -0.497202
v -0.270684 1.583160 0.454226
v -0.497730 -0.589143 -0.992945
v 0.104218 1.670109 0.200915
v -0.036128 0.823754 0.994171
v -1.031346 0.207051 -0.302468
vt 0.631482 -0.046251
vt 0.780173 0.044538
vt 0.657196 0.352557
vt -0.706157 -0.304754
vt -0.801254 0.023977
vt -0.900132 -0.353314
vt 0.605864 -0.542745
vt 0.740300 -0.739986
vt 0.757369 -0.486914
vt 0.721432 -1.347592
vt 0.823197 -0.974645
vt 0.636409 -1.102090
vt 0.141126 -0.197917
vt 0.143112 -0.573196
vt 0.214934 -0.376838
vt -0.438759 0.204152
vt -0.566640 -0.032035
vt -0.392773 -0.040557
vt -0.705179 -0.991304
vt -1.044173 -0.881281
vt -0.952698 -1.113222
vt -0.898869 -0.653448
vt 0.370140 -0.325368
vt 0.500409 -0.316648
vt 0.433967 -0.043040
vt 0.349337 0.185594
vt 0.293084 -0.147360
vt 0.287580 0.808146
vt 0.533362 0.951130
vt 0.188589 1.019067
vt 0.577042 0.678964
vt -0.349144 0.423132
vt -0.298550 0.210101
vt -0.187482 0.324142
vt -0.038974 -0.274371
vt 0.028427 0.007907
vt 0.629752 -0.799193
vt 0.483279 -0.686614
vt 0.499723 -0.954655
vt 0.165522 0.132652
vt -0.005008 0.289760
vt 1.059576 -0.064623
vt 0.894938 -0.236281
vt 1.027828 -0.375882
vt -0.230821 -0.058872
vt -1.109898 -1.405718
vt -1.301712 -0.946804
vt 0.957489 -0.534592
vt -1.369928 -0.496029
vt -1.370338 -0.269162
vt -1.590693 -0.251905
vt 0.318425 -1.226850
vt 0.378939 -1.416674
vt 0.164073 -0.986067
vt 0.025360 0.727822
vt 0.277535 0.589113
vt -1.415894 0.092733
vt 0.112945 0.439878
vt 0.275458 0.353767
vt -0.643855 -0.596606
vt -0.425357 -0.560290
vt -0.470597 -0.458226
vt -0.447562 -0.711295
vt -0.601944 -0.838095
vt -0.439880 -1.000563
vt 0.943998 0.111029
vt 0.477729 0.497121
vt 0.868312 -0.663768
vt -0.088409 1.009538
vt 0.869916 0.437334
vt -1.275645 -0.052927
vt -0.998380 -0.091075
vt -1.125245 0.053620
vt -0.118993 0.106462
vt -0.165354 -0.345899
vt -0.330555 -0.336128
vt -0.277498 -0.590254
vt 0.441222 -0.523690
vt 0.303636 -0.570048
vt -0.625005 0.282914
vt -0.502069 0.456814
vt -0.674307 0.455463
vt 0.730512 -0.224389
vt -0.972974 0.630117
vt -0.781068 0.990108
vt -1.099252 0.805972
vt -0.751246 1.294855
vt -1.053284 1.084415
vt 0.780284 0.869756
vt -0.099330 0.522237
vt -0.185986 0.775060
vt -0.211818 0.636198
vt -0.218427 -0.791933
vt 0.395847 -0.777293
vt -0.514412 -0.279149
vt -1.179348 0.342168
vt -0.502695 -1.335523
vt -0.792236 -0.527360
vt -1.356681 0.444058
vt -0.447547 0.936224
vt -0.386700 1.179586
vt -0.973874 0.178300
vt -0.447417 0.655867
vt 0.509020 0.196066
vt 0.034718 -0.801350
vt 0.223120 -0.821871
vt 0.153651 1.254431
vt -1.152926 -0.585659
vt -1.469880 0.634900
vt -0.836101 0.270141
vt -0.800619 0.626950
vt -0.630437 0.740300
vt 0.640262 -0.301236
vt -0.111980 -0.930864
vt -1.378250 -0.757367
vt 1.054305 -0.757367
vt -0.125951 -1.333973
vt -1.086280 -0.358052
vt -1.017190 -0.495799
vt -1.551360 -0.529823
vt -1.579960 0.339839
vt -0.143124 -0.568177
vt 1.061573 -1.037397
vt -0.045084 -0.645970
vn 0.657800 0.199000 -0.726400
vn 0.187200 0.250500 -0.949800
vn 0.418200 0.329500 -0.846500
vn -0.836200 0.216200 0.503900
vn -0.886400 0.339200 0.314900
vn -0.979300 0.201700 0.018000
vn 0.901300 -0.158200 -0.403200
vn 0.341600 -0.656900 -0.672100
vn 0.412200 -0.032400 -0.910500
vn -0.208900 -0.940100 -0.269500
vn -0.079600 -0.861500 -0.501500
vn 0.058600 -0.925600 -0.374000
vn 0.836100 0.134000 0.531900
vn 0.731100 -0.364500 0.576700
vn 0.970300 -0.178300 0.163500
vn -0.649800 0.213200 0.729600
vn -0.647000 0.343900 0.680500
vn -0.348100 0.115500 0.930300
vn -0.495900 -0.845600 0.197600
vn -0.486200 -0.822400 -0.295500
vn -0.341000 -0.933300 -0.112100
vn -0.888700 -0.454100 0.063100
vn 0.864500 -0.201800 -0.460300
vn 0.920800 -0.113700 -0.373000
vn 0.907300 0.083800 -0.412100
vn 0.919700 0.325900 -0.218900
vn 0.972200 0.125000 -0.197700
vn 0.514500 0.731400 -0.447500
vn -0.148000 0.799500 -0.582100
vn 0.078700 0.919500 -0.385200
vn 0.269400 0.395100 -0.878200
vn -0.253800 0.531100 0.808400
vn -0.188700 0.172100 0.966800
vn 0.250000 0.441300 0.861800
vn 0.491200 0.024000 0.870700
vn 0.536500 0.277000 0.797100
vn 0.680900 -0.634000 -0.366500
vn 0.941500 -0.289300 -0.172600
vn 0.595000 -0.777300 -0.204100
vn 0.887800 0.373900 0.268100
vn 0.532000 0.441300 0.722600
vn -0.430200 0.230600 -0.872800
vn -0.005900 0.191400 -0.981500
vn -0.289000 0.281600 -0.914900
vn -0.037900 0.155600 0.987100
vn -0.213800 -0.917900 -0.334300
vn -0.145000 -0.073400 -0.986700
vn -0.507400 -0.025900 -0.861300
vn -0.587600 0.268300 -0.763300
vn 0.037400 -0.991400 -0.125000
vn -0.283300 -0.958800 -0.017200
vn 0.460200 -0.845200 0.271600
vn 0.467100 0.825700 0.316200
vn 0.792600 0.599600 -0.110400
vn 0.675400 0.637700 0.370400
vn 0.914700 0.392300 -0.096400
vn -0.746500 -0.188100 0.638300
vn -0.388300 0.132900 0.911900
vn -0.408000 0.255100 0.876600
vn -0.418200 -0.470000 0.777200
vn -0.579300 -0.664000 0.472700
vn -0.279100 -0.845400 0.455300
vn -0.208800 0.145800 -0.967000
vn 0.740100 0.363400 -0.565800
vn 0.036700 -0.546100 -0.836900
vn 0.003400 0.999900 -0.007600
vn -0.126100 0.132600 -0.983100
vn -0.596500 0.273800 -0.754500
vn -0.852300 0.255900 -0.456100
vn -0.595400 0.242600 -0.766000
vn 0.304900 0.205800 0.929900
vn 0.142700 0.122300 0.982100
vn -0.248700 0.224300 0.942200
vn 0.014600 -0.082400 0.996500
vn 0.923200 -0.148500 -0.354400
vn 0.898800 -0.333600 -0.284200
vn -0.766800 0.377900 0.518800
vn -0.785800 0.297500 0.542300
vn -0.896500 0.335400 0.289400
vn 0.278700 0.164000 -0.946300
vn -0.838700 0.416500 -0.350800
vn -0.713100 0.655100 -0.249500
vn -0.706000 0.258000 -0.659500
vn -0.361200 0.499600 -0.787300
vn 0.337000 0.705300 0.623600
vn 0.170500 0.879400 0.444500
vn 0.216800 0.786500 0.578200
vn 0.217800 -0.530100 0.819500
vn 0.853900 -0.436100 -0.283800
vn -0.494800 0.218900 0.841000
vn -0.609900 0.154600 -0.777200
vn -0.933900 0.018700 0.357000
vn -0.513000 0.154900 -0.844300
vn -0.491500 0.870000 -0.039600
vn -0.407500 0.812000 -0.417800
vn -0.845100 0.324800 -0.424700
vn -0.373200 0.771100 0.515800
vn 0.760500 0.338900 -0.553800
vn 0.543900 -0.346100 0.764400
vn 0.826400 -0.538800 0.163400
vn -0.655700 -0.254800 -0.710700
vn -0.808200 0.542800 0.228600
vn -0.878400 0.476500 0.037900
vn -0.872400 0.465800 0.148000
vn 0.816000 0.069100 -0.573900
vn 0.244200 -0.692600 0.678600
vn -0.266500 -0.690400 -0.672500
vn -0.033800 -0.975000 0.219400
vn -0.724200 0.272700 -0.633300
vn -0.917700 -0.113200 -0.380700
vn 0.541300 -0.275200 0.794500
vn 0.552700 -0.295200 0.779400
usemtl Material
s 1
f 86/1/1 46/2/2 106/3/3
f 23/4/4 88/5/5 102/6/6
f 82/7/7 84/8/8 44/9/9
f 42/10/10 35/11/11 15/12/12
f 64/13/13 91/14/14 96/15/15
f 30/16/16 70/17/17 7/18/18
f 94/19/19 76/20/20 6/21/21
f 76/20/20 94/19/19 93/22/22
f 51/23/23 66/24/24 69/25/25
f 97/26/26 77/27/27 69/25/25
f 24/28/28 52/29/29 92/30/30
f 24/28/28 43/31/31 52/29/29
f 37/32/32 111/33/33 61/34/34
f 20/35/35 64/13/13 45/36/36
f 78/37/37 100/38/38 89/39/39
f 45/36/36 81/40/40 104/41/41
f 17/42/42 90/43/43 4/44/44
f 7/18/18 25/45/45 111/33/33
f 42/46/10 6/21/21 103/47/46
f 44/9/9 16/48/47 90/43/43
f 109/49/48 58/50/49 4/51/44
f 42/10/10 27/52/50 48/53/51
f 27/52/50 89/39/39 105/54/52
f 83/55/53 3/56/54 24/28/28
f 17/57/42 4/51/44 58/50/49
f 78/37/37 15/12/12 84/8/8
f 15/12/12 27/52/50 42/10/10
f 60/58/55 10/59/56 3/56/54
f 12/60/57 75/61/58 29/62/59
f 95/63/60 33/64/61 34/65/62
f 17/42/42 62/66/63 90/43/43
f 24/28/28 31/67/64 43/31/31
f 32/68/65 16/48/47 44/9/9
f 24/28/28 92/30/30 14/69/66
f 46/2/2 19/70/67 106/3/3
f 5/71/68 112/72/69 107/73/70
f 26/74/71 45/36/36 104/41/41
f 12/60/57 33/64/61 95/63/60
f 39/75/72 74/76/73 72/77/74
f 8/78/75 51/23/23 87/79/76
f 40/80/77 68/81/78 65/82/79
f 90/43/43 99/83/80 44/9/9
f 77/27/27 87/79/76 51/23/23
f 11/84/81 79/85/82 18/86/83
f 96/15/15 77/27/27 64/13/13
f 52/87/29 98/88/84 79/85/82
f 98/89/84 52/29/29 43/31/31
f 61/34/34 104/41/41 55/90/85
f 110/91/86 67/92/87 83/55/53
f 82/7/7 100/38/38 78/37/37
f 72/77/74 95/63/60 49/93/88
f 21/94/89 89/39/39 100/38/38
f 45/36/36 64/13/13 81/40/40
f 29/62/59 74/76/73 41/95/90
f 76/20/20 103/47/46 6/21/21
f 100/38/38 87/79/76 21/94/89
f 15/12/12 35/11/11 84/8/8
f 23/4/4 70/17/17 88/5/5
f 101/96/91 11/84/81 18/86/83
f 40/80/77 30/16/16 68/81/78
f 39/75/72 25/45/45 74/76/73
f 48/97/51 34/65/62 94/19/19
f 12/60/57 23/4/4 50/98/92
f 101/96/91 36/99/93 17/57/42
f 79/85/82 1/100/94 38/101/95
f 57/102/96 107/73/70 112/72/69
f 50/98/92 23/4/4 102/6/6
f 67/92/87 110/91/86 108/103/97
f 46/2/2 90/43/43 62/66/63
f 53/104/98 31/67/64 97/26/26
f 38/101/95 52/87/29 79/85/82
f 12/60/57 95/63/60 75/61/58
f 74/76/73 7/18/18 41/95/90
f 108/103/97 37/32/32 67/92/87
f 100/38/38 82/7/7 8/78/75
f 101/96/91 18/86/83 36/99/93
f 40/80/77 88/5/5 70/17/17
f 87/79/76 100/38/38 8/78/75
f 59/105/99 105/54/52 80/106/100
f 38/107/95 14/69/66 92/30/30
f 76/20/20 93/22/22 56/108/101
f 106/3/3 53/104/98 86/1/1
f 36/99/93 18/86/83 19/109/67
f 47/110/102 65/82/79 28/111/103
f 110/91/86 83/55/53 14/69/66
f 85/112/104 79/85/82 28/111/103
f 14/69/66 108/103/97 110/91/86
f 47/110/102 57/102/96 88/5/5
f 51/23/23 8/78/75 66/24/24
f 18/86/83 79/85/82 98/88/84
f 20/35/35 26/74/71 25/45/45
f 51/23/23 69/25/25 77/27/27
f 66/24/24 54/113/105 86/1/1
f 59/105/99 73/114/106 105/54/52
f 68/81/78 37/32/32 108/103/97
f 72/77/74 75/61/58 95/63/60
f 60/58/55 55/90/85 104/41/41
f 57/102/96 101/96/91 107/73/70
f 91/14/14 80/106/100 87/79/76
f 92/30/30 52/29/29 38/107/95
f 76/20/20 71/115/107 103/47/46
f 71/116/107 16/48/47 32/68/65
f 75/61/58 72/77/74 74/76/73
f 73/114/106 34/65/62 2/117/108
f 44/9/9 54/113/105 82/7/7
f 19/70/67 43/31/31 106/3/3
f 101/96/91 17/57/42 5/71/68
f 5/71/68 22/118/109 112/72/69
f 56/108/101 9/119/110 22/118/109
f 35/11/11 71/116/107 84/8/8
f 59/105/99 80/106/100 91/14/14
f 61/34/34 111/33/33 26/74/71
f 109/49/48 16/120/47 71/115/107
f 85/112/104 1/100/94 79/85/82
f 17/57/42 58/50/49 5/71/68
f 55/90/85 37/32/32 61/34/34
f 10/59/56 60/58/55 81/40/40
f 3/56/54 10/59/56 31/67/64
f 73/114/106 2/117/108 105/54/52
f 53/104/98 97/26/26 69/25/25
f 30/16/16 111/33/33 37/32/32
f 50/98/92 93/22/22 12/60/57
f 36/99/93 19/109/67 62/121/63
f 31/67/64 24/28/28 3/56/54
f 90/43/43 46/2/2 99/83/80
f 72/77/74 49/93/88 13/122/111
f 74/76/73 25/45/45 7/18/18
f 26/74/71 104/41/41 61/34/34
f 31/67/64 106/3/3 43/31/31
f 39/75/72 20/35/35 25/45/45
f 49/93/88 95/63/60 34/65/62
f 42/10/10 103/123/46 35/11/11
f 80/106/100 89/39/39 21/94/89
f 4/44/44 90/43/43 16/48/47
f 54/113/105 44/9/9 99/83/80
f 33/64/61 94/19/19 34/65/62
f 59/105/99 49/93/88 73/114/106
f 57/102/96 47/110/102 11/84/81
f 46/2/2 62/66/63 19/70/67
f 49/93/88 34/65/62 73/114/106
f 63/124/112 20/35/35 13/122/111
f 44/9/9 84/8/8 32/68/65
f 49/93/88 63/124/112 13/122/111
f 20/35/35 45/36/36 26/74/71
f 7/18/18 111/33/33 30/16/16
f 62/121/63 17/57/42 36/99/93
f 50/98/92 102/6/6 93/22/22
f 84/8/8 71/116/107 32/68/65
f 80/106/100 105/54/52 89/39/39
f 68/81/78 108/103/97 85/112/104
f 1/100/94 14/69/66 38/101/95
f 12/60/57 29/62/59 41/95/90
f 6/21/21 42/46/10 48/97/51
f 83/55/53 67/92/87 55/90/85
f 5/71/68 107/73/70 101/96/91
f 47/110/102 28/111/103 11/84/81
f 53/104/98 69/25/25 86/1/1
f 14/69/66 1/100/94 108/103/97
f 91/14/14 20/35/35 63/124/112
f 80/106/100 21/94/89 87/79/76
f 112/72/69 22/118/109 102/6/6
f 2/117/108 34/65/62 48/97/51
f 97/26/26 31/67/64 10/59/56
f 39/75/72 13/122/111 20/35/35
f 104/41/41 81/40/40 60/58/55
f 111/33/33 25/45/45 26/74/71
f 102/6/6 88/5/5 112/72/69
f 58/50/49 22/118/109 5/71/68
f 94/19/19 6/21/21 48/97/51
f 68/81/78 85/112/104 65/82/79
f 97/26/26 10/59/56 81/40/40
f 31/67/64 53/104/98 106/3/3
f 86/1/1 99/83/80 46/2/2
f 75/61/58 74/76/73 29/62/59
f 94/19/19 12/60/57 93/22/22
f 28/111/103 79/85/82 11/84/81
f 16/120/47 109/49/48 4/51/44
f 9/119/110 93/22/22 102/6/6
f 55/90/85 67/92/87 37/32/32
f 60/58/55 83/55/53 55/90/85
f 2/117/108 48/53/51 27/52/50
f 82/7/7 66/24/24 8/78/75
f 99/83/80 86/1/1 54/113/105
f 49/93/88 59/105/99 63/124/112
f 56/108/101 71/115/107 76/20/20
f 23/4/4 12/60/57 41/95/90
f 81/40/40 64/13/13 77/27/27
f 27/52/50 105/54/52 2/117/108
f 40/80/77 70/17/17 30/16/16
f 9/119/110 56/108/101 93/22/22
f 23/4/4 41/95/90 70/17/17
f 58/50/49 56/108/101 22/118/109
f 102/6/6 22/118/109 9/119/110
f 57/102/96 112/72/69 88/5/5
f 65/82/79 85/112/104 28/111/103
f 7/18/18 70/17/17 41/95/90
f 54/113/105 66/24/24 82/7/7
f 18/86/83 98/88/84 19/109/67
f 24/28/28 14/69/66 83/55/53
f 96/15/15 87/79/76 77/27/27
f 40/80/77 65/82/79 47/110/102
f 72/77/74 13/122/111 39/75/72
f 57/102/96 11/84/81 101/96/91
f 66/24/24 86/1/1 69/25/25
f 108/103/97 1/100/94 85/112/104
f 84/8/8 82/7/7 78/37/37
f 94/19/19 33/64/61 12/60/57
f 3/56/54 83/55/53 60/58/55
f 37/32/32 68/81/78 30/16/16
f 89/39/39 27/52/50 15/12/12
f 47/110/102 88/5/5 40/80/77
f 98/89/84 43/31/31 19/70/67
f 87/79/76 96/15/15 91/14/14
f 78/37/37 89/39/39 15/12/12
f 56/108/101 109/49/48 71/115/107
f 59/105/99 91/14/14 63/124/112
f 97/26/26 81/40/40 77/27/27
f 109/49/48 56/108/101 58/50/49
f 20/35/35 91/14/14 64/13/13
f 103/123/46 71/116/107 35/11/11
