# Blender v2.72 (sub 0) OBJ File: 'granite_c_lod2.blend'
# www.blender.org
mtllib granite_c_lod2.mtl
o eggy8
v -0.259377 -1.443282 0.297050
v 0.469100 1.751412 -0.243458
v -0.185770 -0.759475 -1.174939
v -0.559874 0.689817 0.664076
v 0.709592 -1.173772 -0.533095
v -1.197432 -0.823246 -0.430813
v -0.320640 1.288717 -0.718000
v -1.175491 -0.565270 0.411739
v 0.044974 -0.700283 1.277027
v -0.104724 0.529248 -0.880348
v -0.319190 1.558190 0.619986
v 0.724375 -0.383271 -1.019368
v -1.004459 0.603277 -0.098288
v 0.738836 -1.420599 0.391735
v 0.906910 0.987323 0.560331
v 1.364521 -0.179373 0.441131
vt 0.481965 0.285211
vt 0.670269 0.378833
vt 0.622325 0.616518
vt 0.854652 0.341501
vt 0.953374 0.302886
vt 0.949544 0.555889
vt 0.542340 0.072356
vt 0.814596 0.197602
vt 0.648897 0.157654
vt 0.644469 0.818429
vt 0.312917 0.304216
vt 0.399934 0.077373
vt 0.432341 0.738642
vt 0.384076 0.559704
vt 0.260238 0.539997
vt 0.222342 0.861978
vt 0.207720 0.275371
vt 0.053297 0.296499
vt 0.868296 0.810638
vt 0.046620 0.630114
vn -0.036100 -0.272100 0.961500
vn 0.963000 -0.022900 0.268300
vn 0.706900 0.472100 0.526600
vn 0.597000 -0.029000 -0.801700
vn -0.209400 -0.364800 -0.907200
vn -0.180100 0.259000 -0.948900
vn -0.294500 -0.941100 0.165800
vn 0.506000 -0.720400 -0.474300
vn 0.502200 -0.824300 0.261300
vn 0.395000 0.872400 -0.287700
vn -0.864000 -0.205400 0.459700
vn -0.445500 0.721300 0.530200
vn -0.721000 0.318900 0.615200
vn -0.874100 0.469200 -0.125600
vn -0.409700 0.554300 -0.724400
vn -0.824000 -0.402100 -0.399200
usemtl Material
s 1
f 9/1/1 16/2/2 15/3/3
f 12/4/4 3/5/5 10/6/6
f 1/7/7 5/8/8 14/9/9
f 12/4/4 10/6/6 2/10/10
f 8/11/11 1/12/7 9/1/1
f 11/13/12 15/3/3 2/10/10
f 8/11/11 4/14/13 13/15/14
f 7/16/15 11/13/12 2/10/10
f 11/13/12 7/16/15 4/14/13
f 16/2/2 14/9/9 5/8/8
f 6/17/16 3/18/5 1/12/7
f 10/6/6 7/19/15 2/10/10
f 10/20/6 6/17/16 13/15/14
f 1/7/7 3/5/5 5/8/8
f 9/1/1 11/13/12 4/14/13
f 9/1/1 1/12/7 14/9/9
f 12/4/4 5/8/8 3/5/5
f 9/1/1 15/3/3 11/13/12
f 8/11/11 9/1/1 4/14/13
f 13/15/14 4/14/13 7/16/15
f 2/10/10 16/2/2 12/4/4
f 16/2/2 9/1/1 14/9/9
f 13/15/14 6/17/16 8/11/11
f 1/12/7 8/11/11 6/17/16
f 13/15/14 7/16/15 10/20/6
f 5/8/8 12/4/4 16/2/2
f 2/10/10 15/3/3 16/2/2
f 3/18/5 6/17/16 10/20/6
