# Blender v2.72 (sub 0) OBJ File: 'granite_a.blend'
# www.blender.org
mtllib granite_a.mtl
o bouldercubic128
v 0.860730 -0.806496 -0.096606
v 0.026596 0.927142 0.881142
v 0.603594 0.313181 0.417621
v -0.257281 -0.263419 -0.819669
v -0.926424 -0.502913 0.138045
v 0.115479 0.078496 1.081983
v -0.220759 -0.487076 -0.438679
v 0.021436 0.699049 -0.858722
v -0.542984 0.114135 0.442246
v -0.700868 -0.718693 -0.025832
v -0.780869 -0.487951 0.404354
v 0.612904 0.608541 0.029891
v 0.360813 1.050572 -0.199131
v 0.695293 0.047151 0.405972
v 0.843003 -0.309085 -0.447924
v -0.869639 0.161721 0.180381
v -0.636278 0.467815 -0.362843
v -0.122600 -1.050591 0.066139
v 0.296532 -0.069081 -0.606464
v -0.159338 0.798796 0.910569
v -0.486122 -0.549888 0.809442
v 0.690442 -0.889018 0.156080
v -0.407479 -0.015381 0.690952
v 0.279689 -0.780109 -0.421785
v -0.138412 -0.741608 -0.288765
v -0.539905 0.919391 0.314733
v 0.636706 -0.564951 0.383048
v -0.297809 -0.492511 1.003527
v 0.051865 -0.524089 0.886550
v 0.910498 -0.062779 -0.333300
v 0.601558 0.769185 -0.371847
v 0.293838 -0.809795 0.486678
v -0.063171 0.206425 -0.852473
v 0.352194 0.830334 -0.650513
v 0.074594 -0.748437 -0.443291
v 0.970936 -0.427125 -0.253633
v -0.656429 0.037274 -0.557738
v -0.630512 0.404201 0.408561
v -0.238605 -0.917147 0.378326
v -0.103312 0.177418 1.056366
v -0.281654 0.948635 0.150318
v -0.697918 -0.259357 0.464248
v -0.789616 -0.288387 -0.384624
v -0.271812 0.897883 -0.171505
v 0.340033 0.375382 -0.739626
v 0.410491 0.898916 0.271135
v -0.768434 0.099458 -0.245070
v -0.025166 -0.242900 -0.786847
v 0.590538 -0.278785 -0.553867
v 0.501509 0.148390 -0.606097
v -0.414683 -0.729109 0.724260
v 0.381873 -0.176495 0.845863
v 0.814112 -0.657481 -0.364911
v 0.532823 0.581151 0.461429
v -0.229684 1.035919 0.608048
v 0.802425 0.251367 -0.250521
v 0.512410 0.352673 0.743181
v 0.135591 0.565709 1.030098
v 0.110182 1.098457 -0.022988
v 0.677625 -0.077739 -0.528511
v 0.188877 -1.091310 0.156066
v -0.388897 -0.675059 -0.221430
v -0.500661 -0.774246 0.408234
v 0.322459 -0.435726 0.664097
v 0.344010 0.763323 0.738261
v 0.079250 1.029106 -0.504941
v -0.493878 0.697261 -0.524303
v -0.497625 0.234768 -0.772951
v 0.656148 0.258184 -0.464724
v 0.292220 0.243676 0.956293
v -0.580109 -0.199555 -0.663927
v -0.957564 -0.279467 0.110492
v 0.801906 -0.330878 0.324297
v 0.621856 -0.861498 -0.264047
v -0.267209 0.488358 -0.894183
v -0.675691 0.745533 0.366362
v 0.659577 -0.006547 0.660122
v 0.914634 -0.210955 -0.035316
v -0.710716 -0.630234 0.238322
v 0.199574 -0.687214 -0.611075
v -0.490352 -0.903165 0.124323
v -0.473325 0.589865 0.605072
v 0.436475 -0.506934 0.515551
v 0.446315 0.091235 0.823144
v 0.002592 -0.901756 0.615959
v -0.399472 -0.812276 -0.116541
v -0.262388 0.491840 0.866564
v -0.097957 -0.260280 1.047918
v -0.611548 0.774475 -0.065810
v 0.450979 0.569764 -0.690817
v 0.694651 0.531822 -0.378893
v -0.348094 0.878514 -0.491620
v -0.900162 -0.517126 -0.101931
v 0.671263 -0.256656 0.564340
v 0.348270 -1.069824 0.253245
v -0.354817 -0.038804 -0.920729
v 0.681275 0.195794 0.144127
v -0.423612 0.217708 0.597880
v 0.501904 -0.693883 -0.528299
v -0.227746 -0.653211 0.966535
v 0.180458 1.048418 0.477595
v -0.306403 0.806321 -0.700745
v 0.921177 -0.598308 0.124213
v 0.374376 -0.478892 -0.634526
v -0.612815 -0.521641 -0.302295
v -0.013056 0.927943 -0.738163
v 0.026955 -0.909768 -0.193935
v -0.836687 0.524557 0.064090
v 0.608199 -1.004314 0.021542
v -0.373638 -0.283008 0.856455
v 0.036846 -0.488116 -0.728146
v -0.017748 1.109535 0.386499
vt 0.537825 0.448947
vt 0.174340 0.299873
vt 0.243204 0.711291
vt 0.163678 0.568387
vt 0.289438 0.749117
vt 0.528882 0.523587
vt 0.693881 0.159511
vt 0.777103 -0.022117
vt 0.566237 -0.104278
vt -0.263642 0.185608
vt 0.014040 0.027609
vt 0.010357 0.264173
vt 0.644834 0.707970
vt 0.541360 -0.260763
vt 0.404357 -0.423262
vt 0.275771 -0.261760
vt 0.741920 -0.423262
vt 0.604320 -0.460447
vt 0.564422 -0.231650
vt 0.877857 0.318817
vt 0.313431 0.564767
vt 0.539327 0.308817
vt 0.542896 0.666026
vt -0.243860 0.373744
vt -0.241037 0.673272
vt 0.062315 0.460591
vt -0.491724 0.219519
vt -0.326825 0.154583
vt -0.348192 0.410447
vt -0.140906 0.607595
vt -0.360696 0.743849
vt -0.597471 0.605245
vt 0.804436 -0.581076
vt 0.740276 -0.305104
vt 0.457301 -0.529725
vt -0.100380 -0.494188
vt -0.057553 -0.400753
vt 0.144188 -0.453044
vt 0.458886 0.341835
vt 0.140098 0.293764
vt 0.265722 -0.041549
vt -0.204257 -0.123916
vt 0.247305 0.290109
vt 0.163239 0.085228
vt -0.100380 0.235255
vt 0.044721 -0.346317
vt 0.152148 -0.597086
vt -0.088857 -0.485632
vt 0.559437 0.745207
vt 0.412648 0.989862
vt 0.006814 0.867423
vt -0.071174 0.404193
vt -0.288815 0.111057
vt 0.573498 -0.259918
vt 0.483019 -0.201721
vt -0.052075 0.534052
vt 0.238634 0.739900
vt 0.460982 0.079549
vt 0.214854 -0.066708
vt 0.604171 0.348359
vt 0.811355 0.599129
vt 0.543703 0.564113
vt 0.750642 0.348359
vt 0.980772 0.091982
vt 0.784349 0.068509
vt -0.243860 -0.283898
vt 0.062315 -0.231650
vt 0.769856 0.783818
vt 0.640069 0.235467
vt 0.129352 -0.253537
vt -0.072919 -0.235516
vt 0.137946 -0.088499
vt -0.096741 -0.464995
vt -0.143995 -0.192687
vt 0.047360 -0.166841
vt 0.343022 0.605245
vt 0.467694 0.320745
vt 0.664826 0.410447
vt -0.324238 -0.059110
vt -0.514825 0.025522
vt 0.311495 0.500489
vt 0.457669 0.468888
vt 0.604204 0.209406
vt 0.258413 -0.447387
vt 0.006801 -0.263491
vt 0.057071 -0.397289
vt 0.154950 -0.064622
vt 0.389966 0.004950
vt -0.056496 0.085746
vt 0.404357 0.638089
vt 0.542896 0.783818
vt 0.592188 0.599129
vt -0.361165 -0.440313
vt -0.414341 -0.312183
vt 0.714686 -0.094582
vt 0.942935 -0.085399
vt 0.037914 0.534544
vt -0.022244 0.785893
vt 0.523438 -0.464526
vt 0.391022 -0.261909
vt 0.252264 -0.584448
vt 0.560366 0.000561
vt 0.314359 0.190415
vt 0.511844 -0.735386
vt 0.523438 0.743849
vt 0.252264 0.884420
vt 0.266500 -0.270189
vt 0.733129 0.123239
vt 0.936693 0.210483
vt 0.804436 0.024006
vt -0.145386 -0.312183
vt 0.797811 -0.058555
vt 0.785497 0.111057
vt 0.202153 0.632662
vt 0.314314 -0.515033
vt 0.538148 -0.391922
vt 0.457601 -0.195534
vt 0.992040 -0.347923
vt 0.883218 -0.151052
vt 0.238634 0.886629
vt 0.311495 -0.460447
vt 0.993392 0.085746
vt -0.508513 0.800199
vt -0.263807 0.978060
vt -0.041791 0.745581
vt -0.390503 0.462407
vt 0.502479 0.091982
vt 0.055338 -0.367638
vt 0.234244 -0.188173
vt -0.140474 0.633190
vt -0.249621 0.453812
vt -0.174429 0.210803
vt 0.745226 0.455606
vt -0.030808 -0.151052
vt 0.511844 -0.053922
vt -0.401238 -0.176749
vt 0.353200 0.166733
vt -0.060272 -0.095992
vt 0.045567 0.560477
vt 0.171639 0.269072
vt 0.133831 0.800199
vt 0.456290 0.213889
vt -0.479164 0.256220
vt -0.323688 -0.082894
vt 0.626207 -0.426819
vt 0.771225 0.360050
vt 0.032952 0.810693
vt 0.275771 0.727648
vt -0.157239 0.048318
vt 0.323350 -0.283395
vt 0.637882 0.832963
vt -0.075820 0.191937
vt -0.216898 0.285809
vt -0.465692 0.560477
vt -0.237246 0.633190
vt 0.133831 -0.612343
vt -0.434768 -0.095992
vt -0.116937 -0.082894
vt -0.097728 0.210803
vt -0.209377 -0.058555
vt 0.626207 0.569924
vt -0.020086 0.870703
vt -0.297832 0.102357
vt 0.130667 -0.347923
vt -0.096741 -0.440313
vt -0.149967 0.318817
vt 0.111170 0.256220
vt 0.589076 -0.085399
vt 0.553725 -0.097017
vt 0.245672 -0.362789
vt -0.087083 0.453812
vt 0.717966 0.235467
vt 0.245672 -0.589914
vt 0.057071 -0.650551
vt -0.621851 0.269072
vt 0.032952 -0.061822
vt -0.241037 -0.022117
vt 0.890639 0.434318
vt 0.974484 0.534544
vt 0.788623 0.785893
vt -0.323828 0.745581
vt -0.326825 -0.447387
vt -0.158079 0.975278
vt 0.127837 -0.581076
vt 0.144188 0.366439
vt 0.247305 -0.589222
vt 0.890639 -0.391922
vt -0.022244 0.684792
vt -0.057553 0.309254
vt -0.282775 -0.201721
vt -0.486457 -0.270189
vt -0.139965 -0.529725
vt -0.323828 -0.145621
vt -0.066522 -0.305104
vt -0.430811 0.000561
vt -0.568627 -0.263491
vn 0.408000 -0.128700 -0.903800
vn 0.305800 -0.088700 -0.947900
vn 0.120300 0.279300 -0.952600
vn -0.940000 0.330700 -0.083500
vn -0.663600 0.713900 -0.223600
vn -0.875600 0.278600 -0.394600
vn -0.865900 0.119900 -0.485500
vn -0.627400 -0.399200 -0.668500
vn -0.811900 -0.216200 -0.542300
vn -0.352300 0.918900 -0.177400
vn -0.376400 0.923800 -0.069800
vn -0.795400 0.435300 -0.421600
vn 0.327900 -0.124800 -0.936400
vn -0.063000 -0.675600 -0.734500
vn -0.118000 -0.532200 -0.838300
vn -0.331700 -0.745600 -0.577900
vn -0.376700 -0.698500 -0.608400
vn -0.751900 0.167100 -0.637800
vn -0.000700 0.955500 -0.295100
vn 0.493900 0.864200 -0.095800
vn 0.514700 0.573700 -0.637100
vn -0.341800 -0.676000 -0.652800
vn -0.817700 -0.440500 -0.370500
vn -0.570500 -0.776900 -0.266200
vn 0.812600 0.228300 0.536100
vn 0.904800 0.345700 0.248500
vn 0.710700 0.501100 0.493700
vn 0.271800 0.270900 0.923400
vn 0.619600 -0.607700 0.496800
vn 0.556500 -0.391200 0.733000
vn 0.521100 -0.468800 0.713200
vn -0.365500 -0.691500 -0.623000
vn -0.310800 -0.613000 -0.726400
vn -0.383400 -0.623400 -0.681400
vn 0.939900 0.330300 -0.086700
vn 0.927900 0.283500 0.242200
vn 0.942700 0.230800 0.240600
vn -0.561400 0.826700 0.036800
vn -0.150200 -0.822900 -0.548000
vn -0.233300 -0.958000 -0.166500
vn -0.650800 -0.706800 0.277400
vn -0.514800 -0.857200 -0.013600
vn -0.582200 -0.758500 0.292700
vn 0.825600 0.516900 -0.226100
vn 0.768400 0.607100 0.202500
vn 0.944900 0.265900 0.190800
vn 0.861400 0.032500 0.506800
vn 0.507900 -0.437400 0.742100
vn 0.594200 -0.487000 0.640100
vn -0.514500 0.831300 -0.210100
vn -0.051100 0.747100 -0.662700
vn 0.352700 -0.073400 -0.932800
vn 0.312800 -0.121900 -0.941900
vn 0.735600 0.125700 -0.665600
vn 0.612100 0.152400 -0.775900
vn 0.913200 0.277700 -0.298100
vn 0.903400 0.240300 -0.355100
vn 0.454400 0.068400 -0.888100
vn 0.463100 -0.106900 -0.879800
vn -0.875400 -0.433000 0.214900
vn -0.814500 -0.286000 0.504700
vn -0.989700 0.067800 0.126000
vn -0.518600 -0.732000 0.441800
vn -0.314600 -0.898400 0.306400
vn 0.616700 0.048000 0.785700
vn 0.010900 -0.870400 -0.492300
vn 0.627300 -0.010600 0.778600
vn -0.444000 -0.080400 0.892400
vn -0.074900 -0.584300 0.808000
vn -0.053400 -0.137900 0.989000
vn -0.039900 -0.997900 -0.051700
vn -0.268100 -0.173500 -0.947600
vn -0.747700 -0.200500 0.633000
vn 0.316700 0.007300 -0.948500
vn 0.639600 -0.051400 -0.767000
vn -0.303500 0.220600 -0.926900
vn -0.533400 0.583200 -0.612600
vn 0.417600 0.866100 0.274700
vn 0.131000 0.708600 0.693300
vn 0.558900 -0.318300 0.765600
vn 0.271500 -0.072100 0.959700
vn 0.284100 -0.878200 0.384700
vn 0.492400 -0.423200 0.760500
vn 0.393600 -0.915000 -0.088300
vn 0.770700 -0.626000 -0.118700
vn 0.757100 -0.269100 0.595300
vn 0.912300 0.364700 0.186200
vn 0.629500 -0.458400 -0.627300
vn 0.965000 -0.096300 -0.244000
vn 0.884600 -0.238600 0.400500
vn 0.871900 -0.008700 0.489700
vn -0.460600 0.390400 0.797100
vn -0.370900 0.863600 0.341400
vn -0.832600 0.401300 0.381500
vn -0.084400 0.993000 0.082400
vn -0.753700 0.006000 0.657100
vn -0.700600 -0.065500 0.710500
vn -0.713200 0.118000 0.690900
vn -0.081800 0.994800 -0.060400
vn -0.705400 0.215300 0.675300
vn -0.744600 0.067600 0.664100
vn -0.432700 0.076000 0.898300
vn -0.925700 0.170100 -0.337900
vn -0.945000 0.121100 0.303700
vn -0.755200 0.194700 0.625900
vn 0.296200 -0.558400 -0.774900
vn 0.274500 -0.817900 -0.505600
vn -0.197000 -0.591600 -0.781800
vn 0.955900 0.234700 0.176400
vn -0.831700 0.016300 0.554900
vn -0.793700 0.214100 0.569300
vn 0.105800 -0.819800 0.562700
usemtl Material
s 1
f 45/1/1 33/2/2 8/3/3
f 108/4/4 89/5/5 17/6/6
f 37/7/7 71/8/8 43/9/9
f 89/10/5 41/11/10 44/12/11
f 67/13/12 17/6/6 89/5/5
f 104/14/13 80/15/14 111/16/15
f 80/17/14 35/18/16 7/19/17
f 68/20/18 37/7/7 17/6/6
f 66/21/19 13/22/20 34/23/21
f 105/24/22 71/25/8 7/26/17
f 93/27/23 105/24/22 10/28/24
f 57/29/25 54/30/26 65/31/27
f 58/32/28 57/29/25 65/31/27
f 22/33/29 27/34/30 32/35/31
f 86/36/32 62/37/33 25/38/34
f 56/39/35 97/40/36 78/41/37
f 89/10/5 26/42/38 41/11/10
f 107/43/39 18/44/40 86/45/32
f 79/46/41 81/47/42 63/48/43
f 31/49/44 13/50/20 46/51/45
f 3/52/46 57/29/25 77/53/47
f 32/35/31 83/54/48 64/55/49
f 92/56/50 66/21/19 106/57/51
f 19/58/52 48/59/53 33/2/2
f 69/60/54 90/61/55 91/62/56
f 69/63/54 30/64/57 60/65/58
f 105/66/22 7/67/17 62/37/33
f 31/49/44 90/61/55 34/68/21
f 69/63/54 60/65/58 50/69/59
f 5/70/60 11/71/61 72/72/62
f 51/73/63 63/74/43 39/75/64
f 58/76/28 70/77/65 57/78/25
f 79/79/41 5/80/60 10/28/24
f 35/81/16 24/82/66 107/43/39
f 70/77/65 84/83/67 57/78/25
f 79/46/41 10/84/24 81/47/42
f 28/85/68 100/86/69 88/87/70
f 39/75/64 18/44/40 61/88/71
f 96/89/72 33/2/2 48/59/53
f 35/81/16 80/90/14 24/82/66
f 8/3/3 34/91/21 90/92/55
f 11/71/61 51/93/63 21/94/73
f 49/95/74 15/96/75 104/14/13
f 8/3/3 75/97/76 102/98/77
f 65/99/27 101/100/78 2/101/79
f 52/102/80 6/103/81 88/87/70
f 32/35/31 95/104/82 22/33/29
f 58/76/28 65/105/27 2/106/79
f 6/103/81 70/77/65 58/76/28
f 52/102/80 88/87/70 29/107/83
f 109/108/84 1/109/85 22/110/29
f 100/86/69 28/85/68 21/111/73
f 52/102/80 94/112/86 77/113/47
f 12/114/87 46/51/45 54/30/26
f 1/115/85 53/116/88 36/117/89
f 67/13/12 68/20/18 17/6/6
f 27/34/30 103/118/90 73/119/91
f 106/120/51 8/3/3 102/98/77
f 27/34/30 94/112/86 83/54/48
f 7/67/17 35/121/16 25/38/34
f 71/8/8 68/20/18 96/122/72
f 34/91/21 8/3/3 106/120/51
f 20/123/92 55/124/93 76/125/94
f 105/24/22 43/126/9 71/25/8
f 30/127/57 56/39/35 78/41/37
f 55/128/93 112/129/95 41/11/10
f 82/130/96 38/131/97 9/132/98
f 34/23/21 13/22/20 31/133/44
f 78/41/37 97/40/36 73/134/91
f 95/135/82 61/88/71 109/108/84
f 79/79/41 11/136/61 5/80/60
f 59/137/99 66/21/19 44/12/11
f 30/127/57 69/60/54 56/39/35
f 88/87/70 110/138/100 28/85/68
f 87/139/101 40/140/102 20/141/92
f 37/7/7 47/142/103 17/6/6
f 91/62/56 56/39/35 69/60/54
f 16/143/104 42/144/105 9/132/98
f 80/15/14 104/14/13 99/145/106
f 56/39/35 91/62/56 12/114/87
f 107/43/39 24/82/66 74/146/107
f 88/87/70 6/103/81 40/140/102
f 64/55/49 83/54/48 94/112/86
f 7/26/17 4/147/108 111/148/15
f 86/45/32 81/149/42 10/28/24
f 5/70/60 93/150/23 10/84/24
f 47/142/103 37/7/7 43/9/9
f 89/5/5 92/151/50 67/13/12
f 97/40/36 3/52/46 14/152/109
f 77/113/47 84/83/67 52/102/80
f 98/153/110 87/154/101 82/155/96
f 100/86/69 29/107/83 88/87/70
f 55/128/93 20/156/92 2/101/79
f 88/87/70 40/140/102 110/138/100
f 58/76/28 20/141/92 40/140/102
f 45/1/1 8/3/3 90/92/55
f 110/157/100 42/158/105 21/94/73
f 11/136/61 63/74/43 51/73/63
f 9/159/98 98/153/110 82/155/96
f 96/89/72 75/97/76 33/2/2
f 94/160/86 73/134/91 14/152/109
f 49/95/74 60/65/58 15/96/75
f 54/30/26 46/51/45 65/31/27
f 37/7/7 68/20/18 71/8/8
f 24/82/66 80/90/14 99/161/106
f 3/52/46 54/30/26 57/29/25
f 50/69/59 19/58/52 45/1/1
f 26/162/38 89/5/5 76/125/94
f 23/163/111 9/159/98 42/158/105
f 103/164/90 36/117/89 78/41/37
f 27/34/30 83/54/48 32/35/31
f 19/58/52 60/65/58 49/95/74
f 100/86/69 21/111/73 51/165/63
f 75/97/76 96/89/72 68/166/18
f 97/40/36 12/114/87 54/30/26
f 72/72/62 16/167/104 47/142/103
f 52/102/80 64/55/49 94/112/86
f 46/51/45 12/114/87 31/49/44
f 17/6/6 47/142/103 108/4/4
f 73/134/91 103/164/90 78/41/37
f 53/116/88 15/168/75 36/117/89
f 60/65/58 30/64/57 15/96/75
f 101/100/78 46/169/45 13/22/20
f 91/62/56 31/49/44 12/114/87
f 93/150/23 5/70/60 72/72/62
f 61/88/71 85/170/112 39/75/64
f 14/152/109 77/53/47 94/160/86
f 103/164/90 1/115/85 36/117/89
f 60/65/58 19/58/52 50/69/59
f 22/33/29 103/118/90 27/34/30
f 107/43/39 74/146/107 61/88/71
f 23/163/111 87/154/101 98/153/110
f 52/102/80 84/83/67 6/103/81
f 38/171/97 82/155/96 76/125/94
f 55/128/93 2/101/79 101/100/78
f 90/61/55 69/60/54 50/172/59
f 82/155/96 20/123/92 76/125/94
f 7/26/17 71/25/8 4/147/108
f 29/107/83 100/86/69 85/173/112
f 30/127/57 78/41/37 36/117/89
f 108/4/4 76/125/94 89/5/5
f 100/174/69 51/73/63 85/170/112
f 59/137/99 112/129/95 101/100/78
f 111/16/15 48/59/53 104/14/13
f 58/76/28 2/106/79 20/141/92
f 7/67/17 25/38/34 62/37/33
f 47/142/103 43/9/9 72/72/62
f 87/154/101 23/163/111 40/175/102
f 6/103/81 58/76/28 40/140/102
f 99/161/106 74/146/107 24/82/66
f 4/176/108 71/177/8 96/89/72
f 99/161/106 53/178/88 74/146/107
f 75/179/76 67/13/12 102/180/77
f 56/39/35 12/114/87 97/40/36
f 19/58/52 33/2/2 45/1/1
f 101/100/78 13/22/20 59/137/99
f 95/135/82 85/170/112 61/88/71
f 97/40/36 14/152/109 73/134/91
f 16/143/104 38/131/97 76/181/94
f 62/37/33 86/36/32 10/182/24
f 14/152/109 3/52/46 77/53/47
f 30/127/57 36/117/89 15/168/75
f 23/163/111 42/158/105 110/157/100
f 11/71/61 21/94/73 42/158/105
f 7/26/17 111/148/15 80/90/14
f 72/72/62 42/158/105 16/167/104
f 104/14/13 19/58/52 49/95/74
f 75/97/76 8/3/3 33/2/2
f 97/40/36 54/30/26 3/52/46
f 75/179/76 68/20/18 67/13/12
f 59/137/99 13/22/20 66/21/19
f 16/143/104 9/132/98 38/131/97
f 95/104/82 32/35/31 85/173/112
f 59/137/99 41/11/10 112/129/95
f 93/150/23 72/72/62 43/9/9
f 90/61/55 31/49/44 91/62/56
f 6/103/81 84/83/67 70/77/65
f 65/31/27 46/51/45 101/183/78
f 110/157/100 40/175/102 23/163/111
f 44/12/11 66/21/19 92/56/50
f 22/184/29 1/115/85 103/164/90
f 16/167/104 76/125/94 108/4/4
f 35/81/16 107/43/39 25/185/34
f 39/75/64 63/74/43 81/149/42
f 66/21/19 34/23/21 106/57/51
f 67/13/12 92/151/50 102/180/77
f 86/36/32 25/38/34 107/186/39
f 11/136/61 79/79/41 63/74/43
f 32/35/31 29/107/83 85/173/112
f 15/96/75 53/187/88 99/145/106
f 22/110/29 95/135/82 109/108/84
f 61/88/71 18/44/40 107/43/39
f 92/56/50 89/10/5 44/12/11
f 41/11/10 26/42/38 55/128/93
f 101/100/78 112/129/95 55/128/93
f 104/14/13 48/59/53 19/58/52
f 61/88/71 74/146/107 109/108/84
f 92/56/50 106/57/51 102/188/77
f 62/189/33 10/28/24 105/24/22
f 18/44/40 39/75/64 81/149/42
f 4/176/108 48/59/53 111/16/15
f 42/158/105 72/72/62 11/71/61
f 16/167/104 108/4/4 47/142/103
f 87/154/101 20/123/92 82/155/96
f 45/1/1 90/92/55 50/69/59
f 64/190/49 29/191/83 32/192/31
f 74/146/107 1/109/85 109/108/84
f 44/12/11 41/11/10 59/137/99
f 4/176/108 96/89/72 48/59/53
f 1/109/85 74/146/107 53/178/88
f 18/44/40 81/149/42 86/45/32
f 57/78/25 84/83/67 77/113/47
f 55/128/93 26/42/38 76/193/94
f 105/24/22 93/27/23 43/126/9
f 99/145/106 104/14/13 15/96/75
f 98/153/110 9/159/98 23/163/111
f 73/134/91 94/160/86 27/194/30
f 39/75/64 85/170/112 51/73/63
f 64/190/49 52/195/80 29/191/83
f 28/196/68 110/157/100 21/94/73
