# Blender v2.72 (sub 0) OBJ File: 'granite_b.blend'
# www.blender.org
mtllib granite_b.mtl
o cubicflat128_Cube
v -0.337619 0.426590 0.005756
v 0.785288 -0.704187 -0.431215
v -0.043671 0.381747 -0.474240
v 1.240081 -0.058523 -0.196066
v -0.738548 -0.213759 0.627220
v 0.955225 0.312409 0.513183
v -0.060693 -0.077698 0.931190
v -0.959932 0.542030 -0.428933
v 0.035160 -0.034533 -0.979171
v 0.639515 -0.336843 0.557568
v -1.266963 -0.035219 -0.218915
v -0.260369 0.030172 0.972512
v 0.506567 0.139890 -0.608939
v -1.047843 0.381283 -0.647803
v -0.464367 -0.422440 0.749277
v 0.674115 -0.623615 0.220184
v -0.920679 -0.494638 -0.392087
v -0.555328 -0.816270 -0.274861
v -0.514543 -0.475385 -0.604823
v -0.934866 -0.071207 -0.640971
v -0.335968 -0.622410 0.414035
v 0.254200 -0.671256 -0.036722
v -0.946849 -0.573495 0.023622
v -0.598634 -0.788635 0.127656
v -0.165273 0.341314 0.718569
v 0.201297 0.407144 0.552705
v -0.623028 -0.034881 0.628228
v -0.395232 -0.224854 0.932091
v 0.079415 -0.123405 -1.016795
v -1.018087 0.269476 0.021390
v 0.298063 0.011459 -0.808176
v 0.107162 0.398430 0.146315
v -0.796645 -0.767924 -0.102719
v 0.555298 -0.283611 -0.829414
v 0.319108 0.525988 -0.119352
v 0.110468 -0.735377 -0.595123
v -0.837081 0.083311 0.365389
v 0.902042 -0.272888 -0.693667
v -1.095534 0.007868 0.180112
v -0.231709 0.475810 -0.306253
v 0.243132 -0.242279 -0.930576
v 0.875592 -0.562941 0.285098
v 0.081908 -0.278137 0.681812
v 0.407048 -0.753917 -0.382670
v 0.366674 0.505615 0.190472
v -1.122433 -0.405263 -0.201583
v -0.527875 0.557999 -0.469784
v -0.414668 0.052546 0.806339
v -0.787564 0.609280 -0.561252
v 0.174088 0.137736 -0.589260
v -0.581152 -0.110655 -0.789418
v 0.288635 -0.520448 -0.748583
v -0.241498 0.341028 -0.668042
v 0.909089 -0.313570 0.467735
v 0.721605 -0.090382 -0.791236
v -0.544642 0.127399 0.516010
v 0.897936 0.092188 0.675450
v 0.212338 -0.531076 0.369458
v 0.408968 -0.003238 0.826358
v 1.047344 -0.517721 -0.459956
v 0.873062 0.686873 0.124754
v 1.246652 0.215276 -0.197116
v 1.083568 0.523619 0.120594
v 0.074324 0.172984 0.901711
v -1.184190 -0.181045 0.091435
v 0.635743 0.388194 0.620291
v -0.083433 0.367883 0.029904
v -0.644967 0.049880 -0.849485
v 0.730460 -0.536421 -0.642981
v -1.186885 -0.035019 -0.478576
v 1.180283 0.177423 -0.402925
v 1.204747 -0.147067 -0.446617
v 0.386916 -0.070183 -0.876237
v -0.105948 0.352762 0.298359
v -0.185409 -0.780280 -0.433149
v 0.680520 0.041853 0.793782
v -0.097271 0.121968 -0.870809
v 1.168959 -0.406703 -0.199193
v 0.340367 0.364953 -0.375875
v -0.740836 -0.527312 0.520585
v -0.748024 -0.229600 -0.625197
v 0.036013 0.453699 -0.244036
v -0.370929 0.222072 0.644580
v 1.029356 -0.033481 -0.611717
v -0.695440 0.272465 -0.859413
v 0.792362 0.206761 -0.548567
v 0.656069 0.601815 -0.060384
v -0.072168 -0.238222 -1.006631
v -0.561616 0.446675 -0.790145
v 1.018681 -0.483540 0.168093
v 0.749045 -0.731872 -0.176490
v 0.369169 0.216517 0.801353
v 1.057414 0.491799 -0.165765
v -0.708092 0.554417 -0.117370
v -0.425067 0.391242 0.383567
v 0.633928 0.172956 0.776611
v 1.137982 0.197222 0.120256
v -1.168280 0.293019 -0.421056
v -0.352937 -0.053109 -0.963679
v 0.886185 0.597756 0.350116
v 0.843849 -0.103855 0.653611
v 0.577587 0.579074 0.356634
v -0.778540 0.426084 0.136272
v -0.156224 -0.542601 -0.773242
v -1.002362 -0.419348 0.261965
v -0.833321 0.516454 -0.750236
v -0.206177 -0.752339 -0.078135
v 1.034104 -0.070877 0.302531
v -0.002257 -0.630101 0.172966
v -0.848431 -0.632788 0.239892
v 0.467217 -0.692890 -0.551654
v 0.997930 -0.664806 -0.107120
vt -0.199319 -0.483673
vt 0.027591 -0.352978
vt -0.334817 -0.237594
vt 0.495206 0.879423
vt 0.074552 0.979383
vt 0.012952 0.672058
vt 0.212380 -0.000971
vt 0.256665 0.305131
vt -0.072610 0.173003
vt -0.268640 -0.152177
vt -0.385670 -0.304829
vt -0.576253 -0.106908
vt -0.491549 0.012019
vt -0.206757 0.099212
vt 0.492899 0.255615
vt 0.238056 0.101628
vt 0.525732 -0.102984
vt 0.308110 0.413910
vt 0.160615 0.567642
vt -0.158507 0.450983
vt -0.256258 -0.307000
vt -0.189981 -0.444953
vt -0.498538 -0.351755
vt 0.394824 0.063625
vt 0.109523 0.195634
vt 0.229919 -0.118874
vt -0.088120 0.155553
vt -0.293833 -0.013163
vt -0.456248 0.199977
vt 0.543452 0.262643
vt 0.347466 -0.613119
vt 0.236218 -0.400915
vt 0.520899 -0.346808
vt 0.165633 -0.625522
vt 0.381355 -0.738078
vt 0.361338 -0.592918
vt 0.059869 -0.154898
vt 0.370958 -0.387710
vt 0.391725 -0.153937
vt -0.593844 0.602613
vt -0.259673 0.531094
vt 0.358220 -0.806727
vt -0.067361 -0.676772
vt 0.337608 -0.613752
vt -0.461357 -0.496468
vt 0.005976 -0.618587
vt -0.256041 -0.698240
vt 0.626435 -0.932873
vt 0.259583 -0.731704
vt 0.155949 -0.898933
vt 0.653468 0.310807
vt 0.650567 -0.073447
vt 0.323372 0.045494
vt -0.082510 0.441983
vt -0.315887 0.277594
vt 0.198006 -0.545556
vt 0.084184 -0.143679
vt -0.211579 -0.171935
vt -0.057031 -0.448394
vt 0.436877 -0.396293
vt -0.482397 0.151044
vt -0.667231 0.470836
vt -0.498538 0.410342
vt 0.205630 0.388965
vt 0.022988 0.333221
vt 0.079931 -0.406553
vt -0.115832 -0.516196
vt -0.482397 -0.613119
vt -0.382243 -0.515800
vt -0.166969 0.692838
vt -0.492804 0.802604
vt -0.255788 -0.036671
vt -0.459361 0.070258
vt -0.466510 -0.243833
vt 0.107595 -0.805245
vt 0.160615 0.726073
vt 0.413940 0.725262
vt 0.160530 0.476429
vt 0.065200 0.096159
vt 0.035013 -0.070350
vt -0.190174 0.509903
vt -0.457378 0.498100
vt -0.158507 0.769582
vt -0.430923 0.377477
vt 0.916508 -0.738078
vt 0.615178 -0.578278
vt 0.734408 -0.724817
vt 0.196799 0.498282
vt -0.552901 -0.171935
vt -0.142167 -0.290484
vt -0.737283 0.333221
vt -0.790981 -0.143679
vt -0.429015 0.349720
vt -0.261314 -0.140836
vt -0.667231 -0.233466
vt 0.163417 0.719398
vt -0.167033 0.814132
vt 0.365831 0.608112
vt 0.691878 0.479025
vt 0.075032 0.641213
vt -0.164662 0.602613
vt 0.822535 -0.435263
vt 0.975454 -0.480973
vt 0.998555 -0.243833
vt -0.159012 -0.932873
vt 0.263671 0.099880
vt 0.113584 -0.078326
vt -0.095312 0.162128
vt 0.078858 -0.337826
vt 0.274791 0.310239
vt 0.563364 0.282934
vt 0.400079 -0.291792
vt 0.538338 0.554547
vt 0.155949 -0.353211
vt -0.382243 0.271048
vt 0.460660 0.665262
vt 0.673800 0.532065
vt -0.526335 0.236548
vt 0.429101 -0.253523
vt -0.430923 0.712700
vt -0.553789 0.532065
vt 0.823148 0.231578
vt 0.198006 0.857957
vt -0.199319 0.802604
vt -0.537271 0.042310
vt 0.438960 0.057757
vt -0.589685 0.479025
vt -0.395779 0.616382
vt -0.498592 0.754395
vt -0.153613 -0.363390
vt 0.065200 -0.880711
vt 0.910034 -0.020121
vt 0.770822 -0.233466
vt 0.854638 0.042310
vt 0.401276 -0.113793
vt 0.634883 -0.545258
vt 0.655846 0.554547
vt 0.358620 -0.050624
vt 0.662297 0.057757
vt 0.788393 -0.153937
vt 0.623725 -0.290845
vt 0.559402 -0.488045
vt 0.771489 0.013799
vt 0.626435 -0.231536
vt 0.358220 0.198934
vt 0.832856 0.284646
vt 0.779465 0.498100
vt 0.842378 0.725262
vt 0.916508 0.176643
vt 1.018217 -0.030148
vt -0.237528 0.859864
vt -0.306783 -0.480973
vt 0.557577 -0.055107
vt -0.393715 -0.496468
vt -0.438605 0.284646
vt -0.166902 -0.550672
vt 1.064350 -0.592918
vt -0.656076 -0.020121
vt -0.224694 0.199977
vt -0.581501 -0.647867
vt -0.166902 -0.647867
vt -0.560596 0.105192
vt -0.613936 0.231578
vt 0.413940 0.524888
vt 0.938545 -0.387710
vt 0.979635 0.105192
vt -0.288611 -0.724817
vt 0.647228 0.712700
vt 0.308110 0.891464
vt 0.553301 0.282934
vt 0.559402 0.754395
vt -0.777208 0.282051
vn 0.578700 -0.807900 0.111300
vn 0.928500 -0.366900 0.057300
vn 0.822200 -0.410900 0.393800
vn 0.485800 0.758200 -0.434900
vn 0.695100 0.417100 -0.585500
vn 0.175500 0.676400 -0.715300
vn 0.244900 0.833900 -0.494600
vn 0.038800 0.780200 -0.624300
vn 0.206300 0.776700 -0.595100
vn -0.801200 -0.397700 0.447100
vn -0.590100 -0.728000 0.348900
vn -0.471400 -0.603700 0.642900
vn 0.652100 -0.409200 0.638200
vn 0.906200 -0.124500 0.404100
vn 0.150000 -0.592500 -0.791400
vn 0.037900 -0.855900 -0.515700
vn -0.226400 -0.649000 -0.726200
vn 0.817700 0.546800 0.179900
vn 0.372000 0.764200 0.526900
vn 0.726200 0.318300 0.609300
vn -0.606800 0.615300 0.503100
vn -0.550800 0.598000 0.582200
vn -0.628000 0.519200 0.579600
vn 0.963300 0.264300 -0.045900
vn 0.927400 0.031900 0.372600
vn 0.985600 -0.108900 0.129000
vn 0.084300 -0.853700 0.513900
vn 0.158800 -0.936400 0.312900
vn 0.023900 -0.964400 0.263500
vn -0.687100 0.039800 0.725400
vn -0.156600 -0.682400 0.714000
vn -0.250200 -0.341700 0.905900
vn -0.311300 0.645700 -0.697200
vn -0.573900 0.817300 0.050500
vn -0.106000 0.976700 -0.186800
vn 0.403500 0.798000 -0.447600
vn 0.295900 0.948300 -0.114900
vn 0.196700 0.979900 -0.032200
vn 0.123000 -0.986600 0.107000
vn 0.045300 -0.898500 0.436500
vn -0.714300 0.561200 0.418100
vn -0.553000 0.496300 0.669200
vn -0.448500 0.735400 0.507900
vn -0.085000 -0.951600 0.295200
vn -0.807200 -0.200400 -0.555300
vn -0.532700 -0.594100 -0.602700
vn -0.824700 -0.543900 -0.155100
vn 0.198900 -0.254800 0.946300
vn 0.234800 -0.358300 0.903600
vn 0.196200 -0.698500 0.688200
vn -0.028500 0.766600 -0.641400
vn 0.193600 0.803100 -0.563500
vn 0.682700 -0.553900 -0.476500
vn -0.085200 -0.953200 -0.290200
vn 0.167300 -0.969100 0.180900
vn -0.175800 -0.928500 -0.327100
vn -0.386100 -0.569600 -0.725500
vn -0.246200 0.278600 0.928300
vn 0.149500 -0.830000 -0.537400
vn 0.054800 -0.997600 -0.043200
vn 0.209100 0.679800 -0.702900
vn -0.277000 0.124200 -0.952800
vn -0.620300 0.511800 0.594300
vn 0.385900 -0.746800 0.541500
vn 0.230700 0.668600 -0.706900
vn 0.100000 0.509200 -0.854800
vn -0.251000 -0.054300 -0.966400
vn -0.734900 0.326700 -0.594300
vn 0.183700 0.982700 -0.024000
vn -0.202000 0.928000 0.313100
vn -0.770300 0.332300 0.544200
vn -0.917200 -0.134900 0.374800
vn 0.151800 0.685300 0.712200
vn 0.255700 0.375700 0.890700
vn 0.712500 0.059600 0.699100
vn -0.384900 -0.474400 -0.791700
vn -0.485300 -0.337400 -0.806600
vn 0.165200 -0.645900 0.745300
vn 0.127100 -0.870600 0.475300
vn 0.272400 0.413300 -0.868900
vn -0.209400 0.856200 0.472400
vn 0.310000 -0.576100 -0.756300
vn 0.271900 -0.271000 -0.923400
vn 0.308200 -0.876500 -0.369700
vn -0.446300 -0.465300 -0.764400
vn -0.454100 -0.277600 -0.846600
vn -0.290000 0.952100 0.096600
vn -0.015300 0.998500 0.052200
vn -0.130200 0.928700 0.347100
vn -0.195600 0.891800 0.408000
vn -0.351400 0.933600 0.070400
vn -0.202300 0.961300 -0.186800
vn 0.883400 -0.114000 -0.454400
vn -0.115800 0.932200 -0.343000
vn 0.566600 -0.397400 0.721800
vn 0.293700 -0.140000 0.945600
vn 0.221700 0.961900 0.159600
vn 0.288700 -0.303100 -0.908100
vn 0.130700 0.453600 0.881600
vn -0.018700 0.994600 -0.102000
vn 0.344200 0.241900 -0.907200
vn 0.511200 -0.221600 -0.830400
vn -0.766300 -0.623600 0.154500
vn -0.106600 -0.305600 -0.946200
vn -0.999200 0.027600 0.029300
vn -0.081500 0.966200 0.244500
vn -0.013700 0.988000 0.153700
vn 0.546600 0.236500 -0.803300
vn -0.906900 0.415600 -0.069400
vn 0.129500 0.517700 0.845700
vn -0.510300 -0.856300 -0.079300
vn 0.136600 0.105200 -0.985000
usemtl Material
s 1
f 112/1/1 78/2/2 90/3/3
f 93/4/4 71/5/5 86/6/6
f 3/7/7 79/8/8 50/9/9
f 105/10/10 110/11/11 80/12/12
f 54/13/13 90/3/3 108/14/14
f 52/15/15 36/16/16 104/17/17
f 63/18/18 100/19/19 6/20/20
f 83/21/21 56/22/22 48/23/23
f 62/24/24 97/25/25 4/26/26
f 58/27/27 109/28/28 22/29/29
f 63/18/18 62/24/24 93/30/4
f 108/14/14 78/2/2 4/26/26
f 5/31/30 15/32/31 28/33/32
f 106/34/33 8/35/34 49/36/35
f 53/37/36 47/38/37 40/39/38
f 91/40/39 16/41/40 22/29/29
f 30/42/41 37/43/42 103/44/43
f 24/45/44 80/46/12 110/47/11
f 70/48/45 17/49/46 46/50/47
f 59/51/48 7/52/49 43/53/50
f 13/54/51 31/55/52 50/9/9
f 60/56/53 78/2/2 112/1/1
f 75/57/54 107/58/55 18/59/56
f 75/57/54 19/60/57 104/17/17
f 5/61/30 12/62/58 48/63/23
f 111/64/59 44/65/60 36/16/16
f 106/34/33 89/66/61 85/67/62
f 37/43/42 5/68/30 27/69/63
f 42/70/64 16/41/40 112/71/1
f 77/72/65 9/73/66 99/74/67
f 56/22/22 37/43/42 27/69/63
f 106/34/33 85/67/62 14/75/68
f 100/76/19 61/77/69 102/78/70
f 39/79/71 65/80/72 5/61/30
f 66/81/73 96/82/74 6/83/20
f 19/60/57 75/57/54 18/59/56
f 6/20/20 57/84/75 108/14/14
f 103/44/43 8/85/34 30/42/41
f 81/86/76 17/49/46 20/87/77
f 75/57/54 104/17/17 36/16/16
f 63/18/18 6/20/20 97/25/25
f 90/3/3 78/2/2 108/14/14
f 16/41/40 10/88/78 58/27/27
f 24/45/44 107/89/55 21/90/79
f 44/91/60 22/29/29 75/92/54
f 9/73/66 31/55/52 73/93/80
f 25/94/81 48/23/23 12/95/58
f 54/96/13 42/70/64 90/97/3
f 13/54/51 79/8/8 86/6/6
f 69/98/82 52/15/15 34/99/83
f 2/100/84 91/101/39 44/65/60
f 42/70/64 54/96/13 10/88/78
f 53/37/36 89/66/61 47/38/37
f 51/102/85 68/103/86 99/104/67
f 14/75/68 85/67/62 70/105/45
f 32/106/87 74/107/88 26/108/89
f 103/44/43 56/22/22 95/109/90
f 80/46/12 15/32/31 5/31/30
f 32/106/87 45/110/91 35/111/92
f 72/112/93 62/24/24 4/26/26
f 45/110/91 102/78/70 87/113/94
f 105/10/10 65/80/72 46/114/47
f 5/61/30 48/63/23 27/115/63
f 6/20/20 108/14/14 97/25/25
f 59/51/48 101/116/95 76/117/96
f 77/72/65 99/74/67 85/67/62
f 21/90/79 15/32/31 80/46/12
f 13/54/51 73/93/80 31/55/52
f 111/64/59 52/15/15 69/98/82
f 99/104/67 104/17/17 19/60/57
f 7/52/49 15/32/31 43/53/50
f 108/14/14 101/118/95 54/13/13
f 74/107/88 1/119/97 95/109/90
f 56/22/22 83/21/21 95/109/90
f 101/116/95 10/88/78 54/96/13
f 106/34/33 14/75/68 8/35/34
f 58/27/27 43/53/50 21/90/79
f 57/120/75 96/82/74 76/121/96
f 41/122/98 34/99/83 52/15/15
f 60/123/53 112/124/1 2/100/84
f 12/95/58 64/125/99 25/94/81
f 79/8/8 3/7/7 82/126/100
f 34/127/83 55/128/101 38/129/102
f 22/29/29 44/91/60 91/40/39
f 66/81/73 102/78/70 26/108/89
f 110/11/11 105/10/10 23/130/103
f 34/127/83 73/93/80 55/128/101
f 39/131/71 37/43/42 30/42/41
f 19/60/57 51/102/85 99/104/67
f 66/81/73 100/76/19 102/78/70
f 25/94/81 26/108/89 74/107/88
f 104/17/17 88/132/104 52/15/15
f 12/133/58 7/52/49 64/134/99
f 77/72/65 85/67/62 89/66/61
f 46/114/47 65/80/72 11/135/105
f 105/10/10 80/12/12 5/61/30
f 95/109/90 94/136/106 103/44/43
f 60/56/53 72/112/93 78/2/2
f 87/137/94 86/6/6 79/8/8
f 20/87/77 68/103/86 81/86/76
f 67/138/107 82/139/100 40/140/38
f 89/66/61 106/34/33 49/36/35
f 84/141/108 72/112/93 38/142/102
f 11/135/105 98/143/109 70/144/45
f 28/33/32 7/52/49 12/133/58
f 70/144/45 46/114/47 11/135/105
f 10/88/78 101/116/95 59/51/48
f 11/135/105 30/145/41 98/143/109
f 7/52/49 28/33/32 15/32/31
f 30/145/41 11/135/105 39/79/71
f 92/146/110 59/51/48 96/147/74
f 40/140/38 1/119/97 67/138/107
f 87/137/94 61/148/69 93/4/4
f 32/106/87 26/108/89 45/110/91
f 38/142/102 72/112/93 60/56/53
f 98/143/109 8/149/34 14/150/68
f 58/27/27 21/90/79 109/28/28
f 84/151/108 55/128/101 86/6/6
f 55/128/101 84/151/108 38/129/102
f 87/137/94 93/4/4 86/6/6
f 99/74/67 68/152/86 85/67/62
f 53/37/36 77/72/65 89/66/61
f 71/153/5 93/30/4 62/24/24
f 109/28/28 21/90/79 107/89/55
f 49/36/35 47/38/37 89/66/61
f 24/154/44 18/59/56 107/58/55
f 13/54/51 50/9/9 79/8/8
f 14/150/68 70/144/45 98/143/109
f 96/82/74 66/81/73 92/155/110
f 2/100/84 111/64/59 69/98/82
f 72/112/93 84/141/108 71/153/5
f 110/11/11 23/130/103 33/156/111
f 3/7/7 53/37/36 40/39/38
f 72/112/93 71/153/5 62/24/24
f 94/136/106 49/157/35 8/85/34
f 99/74/67 9/73/66 88/158/104
f 112/124/1 91/101/39 2/100/84
f 59/51/48 64/134/99 7/52/49
f 37/43/42 56/22/22 103/44/43
f 11/135/105 65/80/72 39/79/71
f 22/159/29 107/58/55 75/57/54
f 103/44/43 94/136/106 8/85/34
f 76/117/96 96/147/74 59/51/48
f 92/155/110 26/108/89 64/125/99
f 33/160/111 24/45/44 110/47/11
f 81/86/76 68/103/86 51/102/85
f 46/50/47 17/49/46 33/161/111
f 1/119/97 74/107/88 67/138/107
f 105/10/10 5/61/30 65/80/72
f 60/123/53 2/100/84 69/98/82
f 105/10/10 46/114/47 23/130/103
f 50/9/9 77/72/65 53/37/36
f 9/73/66 73/93/80 29/162/112
f 58/27/27 22/29/29 16/41/40
f 63/18/18 97/25/25 62/24/24
f 45/110/91 26/108/89 102/78/70
f 32/106/87 82/139/100 67/138/107
f 73/93/80 41/163/98 29/162/112
f 102/78/70 61/77/69 87/113/94
f 42/70/64 112/71/1 90/97/3
f 43/53/50 58/27/27 10/88/78
f 63/18/18 93/30/4 61/164/69
f 88/132/104 104/17/17 99/104/67
f 59/51/48 43/53/50 10/88/78
f 22/29/29 109/28/28 107/89/55
f 13/54/51 86/6/6 73/93/80
f 94/136/106 1/119/97 47/165/37
f 77/72/65 50/9/9 31/55/52
f 98/143/109 30/145/41 8/149/34
f 41/122/98 88/132/104 29/166/112
f 32/106/87 67/138/107 74/107/88
f 20/167/77 85/67/62 68/152/86
f 6/83/20 100/76/19 66/81/73
f 32/106/87 35/111/92 82/139/100
f 17/49/46 19/60/57 18/59/56
f 111/64/59 36/16/16 52/15/15
f 47/165/37 1/119/97 40/140/38
f 70/48/45 20/87/77 17/49/46
f 55/128/101 73/93/80 86/6/6
f 24/154/44 33/161/111 18/59/56
f 95/109/90 1/119/97 94/136/106
f 112/71/1 16/41/40 91/40/39
f 101/116/95 57/168/75 76/117/96
f 100/76/19 63/169/18 61/77/69
f 40/39/38 82/126/100 3/7/7
f 57/120/75 6/83/20 96/82/74
f 27/69/63 48/23/23 56/22/22
f 25/94/81 64/125/99 26/108/89
f 108/14/14 4/26/26 97/25/25
f 92/146/110 64/134/99 59/51/48
f 25/94/81 95/109/90 83/21/21
f 79/8/8 35/170/92 87/137/94
f 4/26/26 78/2/2 72/112/93
f 43/53/50 15/32/31 21/90/79
f 34/127/83 41/163/98 73/93/80
f 87/113/94 35/111/92 45/110/91
f 44/65/60 75/57/54 36/16/16
f 95/109/90 25/94/81 74/107/88
f 50/9/9 53/37/36 3/7/7
f 66/81/73 26/108/89 92/155/110
f 84/151/108 86/6/6 71/5/5
f 9/73/66 29/162/112 88/158/104
f 94/136/106 47/165/37 49/157/35
f 37/43/42 39/131/71 5/68/30
f 19/60/57 81/86/76 51/102/85
f 46/114/47 33/156/111 23/130/103
f 9/73/66 77/72/65 31/55/52
f 52/15/15 88/132/104 41/122/98
f 80/46/12 24/45/44 21/90/79
f 48/23/23 25/94/81 83/21/21
f 34/99/83 38/171/102 69/98/82
f 20/167/77 70/105/45 85/67/62
f 79/8/8 82/126/100 35/170/92
f 5/61/30 28/172/32 12/62/58
f 38/171/102 60/123/53 69/98/82
f 16/41/40 42/70/64 10/88/78
f 18/59/56 33/161/111 17/49/46
f 108/14/14 57/84/75 101/118/95
f 81/86/76 19/60/57 17/49/46
f 111/64/59 2/100/84 44/65/60
