# Blender v2.72 (sub 0) OBJ File: 'granite_b_lod2.blend'
# www.blender.org
mtllib granite_b_lod2.mtl
o cubicflat8
v 1.083142 -0.664339 -0.257594
v -0.003678 0.406100 -0.342968
v 1.278106 0.117304 -0.338027
v -0.364027 -0.135053 0.982376
v -0.881652 0.598251 -0.713767
v -0.033561 -0.102563 -1.055004
v 0.809763 -0.546377 0.306033
v -1.293292 -0.104463 -0.031533
v -1.202770 0.200538 -0.544770
v -0.741630 -0.811033 -0.211894
v -0.766158 -0.675352 0.378265
v 0.591834 -0.177221 -0.883005
v -0.048047 -0.755632 -0.594704
v 0.803113 0.088503 0.795510
v 0.975077 0.696576 0.127242
v -0.298102 0.340741 0.635298
vt 0.828063 0.855739
vt 0.476432 0.978218
vt 0.241630 0.719352
vt 0.197633 0.602677
vt 0.401153 0.279954
vt 0.647348 0.467302
vt 0.764019 0.057035
vt 0.387443 0.200793
vt 0.516575 0.051854
vt 0.574739 0.507296
vt 0.330055 0.559562
vt 0.377296 0.383108
vt 0.939027 0.189087
vt 0.495422 0.072552
vt 0.616601 0.741161
vt 0.239970 0.865852
vt 0.365850 0.801023
vt 0.049560 0.424336
vt 0.747645 0.750366
vt 0.905464 0.505248
vt 0.317405 0.197277
vt 0.189507 0.248212
vt 0.196623 0.758315
vt 0.614947 0.858764
vt 0.704465 0.793968
vt 0.603963 0.520703
vt 0.740946 0.332348
vt 0.149097 0.502061
vt 0.436289 0.081572
vt 0.546393 0.198620
vt 0.245487 0.250345
vt 0.395570 0.879151
vt 0.246949 0.386786
vt 0.201751 0.569691
vt 0.563799 0.448103
vt 0.784513 0.505538
vt 0.831452 0.446023
vt 0.891674 0.582316
vt 0.717396 0.344230
vt 0.357349 0.223612
vn 0.486200 0.870800 0.072100
vn 0.903600 0.249300 -0.348400
vn 0.371200 0.043700 -0.927500
vn 0.492800 0.063500 0.867800
vn 0.672600 -0.728800 -0.128500
vn -0.892500 0.164500 -0.419900
vn -0.414000 -0.878900 -0.236800
vn -0.981600 0.012900 0.190500
vn -0.024000 -0.873200 -0.486700
vn 0.417000 -0.736900 0.532000
vn -0.272700 0.795900 0.540500
vn -0.379900 0.788600 -0.483400
vn 0.029100 0.069200 -0.997200
vn -0.422200 -0.744300 0.517300
vn -0.215800 -0.126100 0.968300
vn 0.123100 0.938800 -0.321600
usemtl Material
s 1
f 15/1/1 3/2/2 12/3/3
f 14/4/4 1/5/5 3/6/2
f 9/7/6 10/8/7 8/9/8
f 13/10/9 7/11/10 10/8/7
f 16/12/11 5/13/12 8/14/8
f 15/15/1 14/4/4 3/6/2
f 1/16/5 7/17/10 13/18/9
f 14/19/4 7/17/10 1/16/5
f 6/20/13 13/10/9 10/8/7
f 7/17/10 14/19/4 11/21/14
f 4/22/15 14/23/4 16/12/11
f 10/8/7 9/7/6 6/20/13
f 14/23/4 15/24/1 16/12/11
f 13/10/9 6/20/13 12/25/3
f 15/1/1 12/3/3 2/26/16
f 12/27/3 3/6/2 1/5/5
f 6/28/13 9/29/6 5/30/12
f 2/26/16 6/28/13 5/30/12
f 11/31/14 10/8/7 7/11/10
f 1/32/5 13/10/9 12/25/3
f 8/14/8 4/22/15 16/12/11
f 11/33/14 4/34/15 8/35/8
f 16/12/11 2/36/16 5/13/12
f 6/28/13 2/26/16 12/3/3
f 9/37/6 8/35/8 5/38/12
f 14/19/4 4/39/15 11/21/14
f 15/24/1 2/36/16 16/12/11
f 8/35/8 10/40/7 11/33/14
