# Blender v2.72 (sub 0) OBJ File: 'copperOre_b_lod2.blend'
# www.blender.org
mtllib copperOre_b_lod2.mtl
o rockhigh8
v -0.857401 -0.314265 -0.055593
v 0.153472 0.043357 -0.946976
v 0.735926 -0.753331 0.240803
v 0.686780 0.058970 0.558628
v 0.464419 -0.706550 -0.484571
v -0.608554 -0.250130 0.875395
v -0.629910 0.899967 0.299537
v -0.562001 1.267056 -0.165705
v -0.609536 -0.053236 -0.750043
v -0.179452 1.571187 -0.404895
v 0.919954 -0.294570 -0.300441
v 0.258776 1.278807 -0.200684
v 0.454459 -0.329730 0.723514
v -0.414541 -0.774927 0.673640
v -0.329407 -0.671769 -0.482854
v -0.172995 1.501816 0.065637
v 0.693243 0.103675 -0.716548
v 0.092057 -0.904812 -0.045889
v 0.119073 -0.460498 -0.886613
v -0.078006 0.092925 0.906860
vt 0.701150 0.437663
vt 0.465465 0.524094
vt 0.621238 0.341779
vt 0.800875 0.357209
vt 0.417955 0.506561
vt 0.465954 0.452677
vt 0.278808 0.143336
vt 0.431556 0.154922
vt 0.319347 0.313668
vt 0.246999 0.295128
vt 0.206470 0.452026
vt 0.345679 0.560409
vt 0.766820 0.206461
vt 0.911030 0.099807
vt 0.975616 0.287687
vt 0.716375 0.053697
vt 0.409250 0.582184
vt 0.176214 0.605401
vt 0.328664 0.730130
vt 0.107650 0.747650
vt 0.388963 0.870603
vt 0.487006 0.732342
vt 0.028490 0.271956
vt 0.113734 0.045189
vt 0.618954 0.714106
vt 0.592526 0.862604
vt 0.208761 0.950934
vt 0.605113 0.181707
vt 0.072987 0.419822
vn 0.086200 0.107600 -0.990400
vn -0.068200 0.869900 -0.488400
vn 0.740400 0.146100 -0.656000
vn 0.070400 -0.499900 -0.863200
vn 0.004600 0.860000 0.510200
vn 0.762400 0.646100 -0.036000
vn 0.679800 -0.679300 0.276400
vn 0.958200 -0.144400 -0.246800
vn 0.775600 0.244700 0.581800
vn 0.450800 -0.269900 0.850800
vn 0.081800 0.218000 0.972500
vn -0.742900 0.418400 0.522400
vn 0.406300 -0.749900 -0.522000
vn -0.027300 -0.994600 -0.099900
vn -0.432500 -0.780400 -0.451600
vn -0.835700 0.533100 -0.131600
vn -0.586800 -0.118500 0.801000
vn -0.945900 -0.310800 -0.093100
vn -0.342400 -0.771100 0.536700
vn -0.680300 -0.076600 -0.728900
usemtl Material
s 1
f 2/1/1 10/2/2 17/3/3
f 2/1/1 17/3/3 19/4/4
f 16/5/5 12/6/6 10/2/2
f 3/7/7 11/8/8 4/9/9
f 3/7/7 4/9/9 13/10/10
f 20/11/11 16/5/5 7/12/12
f 5/13/13 18/14/14 15/15/15
f 5/13/13 15/15/15 19/4/4
f 5/13/13 3/16/7 18/14/14
f 16/5/5 10/2/2 8/17/16
f 16/5/5 8/17/16 7/12/12
f 6/18/17 1/19/18 14/20/19
f 15/21/15 1/19/18 9/22/20
f 7/12/12 1/19/18 6/18/17
f 3/7/7 14/23/19 18/24/14
f 9/22/20 1/19/18 8/17/16
f 8/17/16 1/19/18 7/12/12
f 9/22/20 10/2/2 2/25/1
f 9/22/20 2/25/1 19/26/4
f 15/21/15 18/27/14 14/20/19
f 10/2/2 9/22/20 8/17/16
f 10/2/2 12/6/6 17/3/3
f 11/28/8 3/16/7 5/13/13
f 11/28/8 5/13/13 19/4/4
f 11/28/8 19/4/4 17/3/3
f 12/6/6 11/8/8 17/3/3
f 4/9/9 12/6/6 16/5/5
f 15/21/15 9/22/20 19/26/4
f 20/11/11 7/12/12 6/18/17
f 4/9/9 11/8/8 12/6/6
f 13/10/10 4/9/9 20/11/11
f 13/10/10 20/11/11 6/29/17
f 13/10/10 6/29/17 14/23/19
f 13/10/10 14/23/19 3/7/7
f 15/21/15 14/20/19 1/19/18
f 16/5/5 20/11/11 4/9/9
