# Blender v2.72 (sub 0) OBJ File: 'copperOre_d_lod2.blend'
# www.blender.org
mtllib copperOre_d_lod2.mtl
o rocksquare8
v -0.460169 0.045061 1.483005
v 0.361309 0.665706 -1.837386
v 1.067914 0.679608 0.266393
v 0.507364 0.164090 1.514349
v 0.588471 0.584956 1.333192
v -0.201843 -0.261194 -0.433319
v -0.108202 0.978398 0.565604
v -1.473864 0.140104 -1.229437
v 0.683555 -0.120754 -1.189425
v -1.144266 0.785844 -1.661776
v -0.948848 0.076890 0.964028
v -1.505985 0.576854 -1.484901
v -1.319102 0.172098 -1.793756
v 0.688717 0.158772 -1.692628
v 1.230714 0.123592 -0.933151
v 0.847648 0.771703 -1.504559
v 1.395516 0.197470 -0.048558
v -0.282523 0.471723 1.663815
v 1.111115 0.228121 1.101333
v -0.752412 0.458312 1.438967
v 0.905390 -0.121986 0.658091
vt 0.520192 0.533931
vt 0.548065 0.518803
vt 0.552322 0.551593
vt 0.478937 0.593532
vt 0.289798 0.452044
vt 0.253605 0.282971
vt 0.481692 0.388691
vt 0.875210 0.637611
vt 0.859537 0.699122
vt 0.927910 0.691537
vt 0.662606 0.302144
vt 0.844256 0.427417
vt 0.653234 0.393263
vt 0.815396 0.304012
vt 0.927743 0.402517
vt 0.569618 0.463939
vt 0.555122 0.416372
vt 0.021335 0.548205
vt 0.090720 0.617627
vt 0.642660 0.516336
vt 0.330077 0.202592
vt 0.184406 0.231847
vt 0.540927 0.471717
vt 0.831557 0.747294
vt 0.584612 0.643280
vt 0.904985 0.463847
vt 0.484960 0.258821
vn -0.271600 -0.736900 0.619000
vn -0.119300 0.367200 0.922500
vn -0.680100 0.360400 0.638400
vn -0.758300 -0.573800 0.309400
vn -0.090800 -0.995000 -0.042400
vn 0.162600 -0.928600 -0.333400
vn 0.361500 -0.911400 0.196700
vn -0.322000 0.776300 -0.541900
vn -0.872000 0.439900 -0.214600
vn -0.476900 -0.461900 -0.747800
vn 0.983300 -0.182000 0.007200
vn 0.583100 0.661700 -0.471400
vn 0.613100 0.780300 0.123100
vn 0.885600 -0.372200 -0.277700
vn 0.408300 -0.500700 -0.763200
vn 0.389000 0.684200 0.616800
vn 0.824300 -0.095200 0.558000
vn -0.814500 -0.580100 0.009100
vn -0.085800 0.981100 0.173100
vn 0.342700 -0.402400 0.848900
vn 0.168900 0.446600 -0.878600
usemtl Material
s 1
f 1/1/1 18/2/2 20/3/3
f 1/1/1 20/3/3 11/4/4
f 6/5/5 9/6/6 21/7/7
f 10/8/8 12/9/9 20/3/3
f 10/8/8 13/10/10 12/9/9
f 17/11/11 16/12/12 3/13/13
f 16/12/12 15/14/14 14/15/15
f 3/13/13 5/16/16 19/17/17
f 11/4/4 21/7/7 1/1/1
f 11/4/4 6/5/5 21/7/7
f 13/18/10 6/5/5 8/19/18
f 3/13/13 7/20/19 5/16/16
f 9/6/6 15/21/14 21/7/7
f 14/22/15 15/21/14 9/6/6
f 17/11/11 3/13/13 19/17/17
f 1/1/1 21/7/7 4/23/20
f 7/20/19 20/3/3 18/2/2
f 12/9/9 8/24/18 11/25/4
f 11/25/4 20/3/3 12/9/9
f 14/15/15 2/26/21 16/12/12
f 17/11/11 15/14/14 16/12/12
f 5/16/16 4/23/20 19/17/17
f 10/8/8 20/3/3 7/20/19
f 14/22/15 6/5/5 13/18/10
f 3/13/13 16/12/12 7/20/19
f 16/12/12 10/8/8 7/20/19
f 8/24/18 12/9/9 13/10/10
f 13/10/10 2/26/21 14/15/15
f 13/10/10 10/8/8 2/26/21
f 16/12/12 2/26/21 10/8/8
f 15/21/14 17/27/11 21/7/7
f 4/23/20 18/2/2 1/1/1
f 19/17/17 4/23/20 21/7/7
f 4/23/20 5/16/16 18/2/2
f 11/4/4 8/19/18 6/5/5
f 6/5/5 14/22/15 9/6/6
f 7/20/19 18/2/2 5/16/16
f 21/7/7 17/27/11 19/17/17
