# Blender v2.72 (sub 0) OBJ File: 'copperOre_a_lod2.blend'
# www.blender.org
mtllib copperOre_a_lod2.mtl
o rockflat8
v -0.642796 0.701002 -0.179828
v 0.820210 0.089960 0.953595
v 0.765763 -0.106726 -1.481080
v -1.330320 0.252130 -1.167672
v -0.928084 0.073700 -1.258405
v -0.852601 0.441462 1.064962
v 1.141361 0.774571 -1.233192
v 0.168839 -0.091823 1.050738
v 0.056249 0.194355 1.396089
v 0.841686 0.510618 0.860973
v 1.073605 0.553421 0.201878
v 1.104453 0.792269 -0.497213
v -0.001018 0.614952 0.274280
v -0.795484 -0.132176 0.495638
v -0.106369 1.221795 -1.026173
v -1.355167 0.456691 -0.213805
v 0.490616 0.112863 -1.769296
v 1.457244 0.421201 -1.104206
v 0.708611 -0.068860 0.895217
v -1.032823 0.865918 -1.212424
v -1.509051 0.170213 -0.350496
v -0.556899 1.150786 -0.762924
v 1.617599 0.475497 -0.702379
v -0.670958 0.755361 0.373252
v 0.444311 0.530841 -0.031600
v 0.053915 0.403373 1.324731
v 0.322215 0.606619 -1.691174
v -0.023097 0.060025 -1.770134
vt 0.419010 0.766752
vt 0.409453 0.626443
vt 0.498712 0.718973
vt 0.048729 0.636084
vt 0.147783 0.293443
vt 0.232962 0.362983
vt 0.472238 0.426951
vt 0.484600 0.527699
vt 0.434112 0.486549
vt 0.313408 0.537068
vt 0.320392 0.356633
vt 0.358230 0.472136
vt 0.561813 0.558957
vt 0.653148 0.378124
vt 0.352691 0.370059
vt 0.461039 0.293080
vt 0.428958 0.237829
vt 0.403742 0.188761
vt 0.717426 0.315131
vt 0.557791 0.627775
vt 0.433937 0.587775
vt 0.800313 0.330711
vt 0.877207 0.110037
vt 0.724027 0.570196
vt 0.797875 0.599904
vt 0.750049 0.655689
vt 0.539775 0.401378
vt 0.561858 0.307404
vt 0.741967 0.434328
vt 0.797673 0.352554
vt 0.878518 0.597012
vt 0.611539 0.540065
vt 0.586657 0.787503
vt 0.706495 0.960235
vn -0.384800 -0.689600 -0.613500
vn -0.941300 -0.322500 0.099900
vn -0.778700 -0.238600 -0.580200
vn 0.386800 -0.807700 -0.444900
vn 0.403200 -0.840800 0.361100
vn 0.006000 -0.910200 0.414000
vn 0.135900 0.989800 0.041600
vn -0.166000 0.962800 0.213300
vn -0.153900 0.979600 0.129300
vn -0.455600 -0.847100 0.273600
vn 0.017500 -0.257300 0.966200
vn -0.637700 0.232900 0.734200
vn -0.317700 0.909100 0.269400
vn 0.345900 0.906100 0.243600
vn 0.095200 0.663100 0.742400
vn 0.586300 0.644600 0.490600
vn 0.726000 -0.273900 0.630800
vn 0.998900 0.029700 0.034800
vn -0.605900 0.626100 -0.490800
vn -0.787800 0.548500 0.280100
vn 0.849800 -0.132100 -0.510300
vn 0.086900 0.479900 -0.873000
vn 0.263100 -0.250300 -0.931700
vn -0.229100 -0.482000 -0.845600
vn 0.032200 0.981900 0.186300
vn 0.525200 0.768800 0.364900
vn 0.518000 0.684200 -0.513400
vn 0.033100 0.982400 -0.183700
usemtl Material
s 1
f 5/1/1 21/2/2 4/3/3
f 3/4/4 19/5/5 8/6/6
f 13/7/7 1/8/8 24/9/9
f 14/10/10 8/6/6 9/11/11
f 14/10/10 9/11/11 6/12/12
f 22/13/13 1/8/8 12/14/14
f 13/7/7 26/15/15 10/16/16
f 2/17/17 19/18/5 23/19/18
f 20/20/19 1/8/8 22/13/13
f 14/10/10 16/21/20 21/2/2
f 24/9/9 1/8/8 16/21/20
f 18/22/21 23/19/18 3/23/4
f 4/3/3 16/21/20 20/20/19
f 27/24/22 17/25/23 28/26/24
f 25/27/25 13/7/7 11/28/26
f 23/19/18 7/29/27 12/14/14
f 10/16/16 11/28/26 13/7/7
f 21/2/2 16/21/20 4/3/3
f 27/24/22 28/26/24 20/20/19
f 20/20/19 16/21/20 1/8/8
f 7/29/27 18/30/21 17/25/23
f 7/29/27 17/25/23 27/24/22
f 2/17/17 23/19/18 11/28/26
f 17/25/23 3/31/4 28/26/24
f 12/14/14 11/28/26 23/19/18
f 19/18/5 2/17/17 9/11/11
f 19/18/5 3/23/4 23/19/18
f 22/13/13 12/14/14 15/32/28
f 10/16/16 2/17/17 11/28/26
f 19/5/5 9/11/11 8/6/6
f 10/16/16 9/11/11 2/17/17
f 3/4/4 8/6/6 14/10/10
f 24/9/9 6/12/12 26/15/15
f 12/14/14 25/27/25 11/28/26
f 24/9/9 16/21/20 6/12/12
f 6/12/12 9/11/11 26/15/15
f 15/32/28 20/20/19 22/13/13
f 10/16/16 26/15/15 9/11/11
f 14/10/10 6/12/12 16/21/20
f 5/33/1 3/31/4 14/34/10
f 24/9/9 26/15/15 13/7/7
f 20/20/19 15/32/28 27/24/22
f 13/7/7 25/27/25 1/8/8
f 12/14/14 1/8/8 25/27/25
f 15/32/28 12/14/14 7/29/27
f 15/32/28 7/29/27 27/24/22
f 28/26/24 5/33/1 20/20/19
f 14/10/10 21/2/2 5/1/1
f 23/19/18 18/30/21 7/29/27
f 3/31/4 5/33/1 28/26/24
f 4/3/3 20/20/19 5/33/1
f 18/30/21 3/31/4 17/25/23
