# Blender v2.72 (sub 0) OBJ File: 'copperOre_c_lod2.blend'
# www.blender.org
mtllib copperOre_c_lod2.mtl
o rocklong8
v 0.407271 -0.905826 -1.393686
v 0.700828 -0.791835 1.518026
v -0.405833 -0.765090 1.727544
v -0.172866 1.123225 -1.059931
v 0.280282 0.725830 1.224381
v -0.167337 -0.994617 -1.686621
v 0.091198 -1.263918 -0.803433
v 0.820867 0.691125 -1.287245
v 1.204309 -0.321980 -0.027699
v 0.916318 -0.061118 1.477890
v -0.191205 -0.280054 1.846537
v -0.790764 -0.576607 1.608972
v 0.727952 -0.778688 0.640770
v 0.080622 -0.965623 0.104466
v -0.210722 0.667690 0.028034
v -1.371132 0.051676 -0.216933
v 1.090962 -0.207622 -1.373746
v -0.773401 -0.693445 0.348664
v -1.226652 0.374944 -0.780492
v 0.300163 -0.125398 -1.848162
v -0.025630 1.001394 -1.529513
v -0.417642 0.172813 1.559936
v -0.489897 0.943104 -1.334272
v -0.924145 -0.260359 0.716785
v -0.487124 -0.246547 -1.911925
v 1.031043 0.699133 -0.947231
v 0.640923 0.307855 0.104227
vt 0.305250 0.641105
vt 0.357440 0.626791
vt 0.343580 0.689959
vt 0.209906 0.185147
vt 0.471233 0.085723
vt 0.225068 0.347826
vt 0.556835 0.447641
vt 0.579122 0.413884
vt 0.586364 0.449297
vt 0.158057 0.463416
vt 0.258162 0.505655
vt 0.475124 0.519902
vt 0.616960 0.520777
vt 0.451614 0.828918
vt 0.450208 0.702903
vt 0.644001 0.348284
vt 0.544392 0.371439
vt 0.731907 0.394562
vt 0.838985 0.397058
vt 0.868574 0.574009
vt 0.666534 0.417383
vt 0.017413 0.480576
vt 0.632183 0.625439
vt 0.607667 0.664399
vt 0.759173 0.317973
vt 0.410359 0.429180
vt 0.359742 0.541630
vt 0.540002 0.271017
vt 0.509337 0.370068
vt 0.299517 0.700677
vt 0.371832 0.324893
vt 0.981543 0.444037
vt 0.373578 0.937434
vn -0.049800 0.132100 0.990000
vn -0.490100 0.609900 0.622800
vn -0.803400 -0.277800 0.526600
vn 0.058100 -0.987100 0.149300
vn 0.555200 -0.701500 -0.446700
vn 0.551000 -0.827100 0.110800
vn -0.093400 0.991600 0.088900
vn 0.058300 0.743400 -0.666300
vn -0.563300 0.704200 -0.432100
vn 0.538000 -0.681000 0.496800
vn 0.790100 0.228800 0.568700
vn -0.151700 0.958100 0.243000
vn -0.899600 0.401700 -0.171000
vn -0.642800 -0.763200 0.065700
vn -0.952900 -0.104300 0.284700
vn 0.319000 -0.007000 -0.947700
vn 0.567100 0.575300 -0.589400
vn -0.207300 -0.732200 -0.648800
vn 0.199400 -0.979100 0.039500
vn -0.487400 -0.107200 -0.866600
vn -0.211200 -0.719400 0.661700
vn -0.991300 0.092600 0.093600
vn 0.605600 0.771600 0.194300
vn 0.174800 0.909100 0.377900
vn 0.830600 -0.211400 -0.515100
vn 0.754300 0.656500 -0.005300
vn 0.981500 -0.161900 0.101800
usemtl Material
s 1
f 11/1/1 22/2/2 12/3/3
f 14/4/4 1/5/5 13/6/6
f 4/7/7 21/8/8 23/9/9
f 2/10/10 13/6/6 10/11/11
f 15/12/12 4/7/7 19/13/13
f 18/14/14 12/3/3 24/15/15
f 20/16/16 21/8/8 8/17/17
f 6/18/18 7/19/19 18/20/14
f 23/9/9 21/8/8 25/21/20
f 3/22/21 14/4/4 13/6/6
f 25/21/20 6/18/18 16/23/22
f 4/7/7 23/9/9 19/13/13
f 18/14/14 24/15/15 16/24/22
f 6/18/18 20/16/16 1/25/5
f 27/26/23 5/27/24 10/11/11
f 16/24/22 24/15/15 22/2/2
f 17/28/25 1/25/5 20/16/16
f 6/18/18 25/21/20 20/16/16
f 26/29/26 15/12/12 27/26/23
f 5/27/24 11/1/1 10/11/11
f 1/25/5 7/19/19 6/18/18
f 2/10/10 11/1/1 3/30/21
f 11/1/1 12/3/3 3/30/21
f 8/17/17 17/28/25 20/16/16
f 23/9/9 25/21/20 19/13/13
f 22/2/2 15/12/12 16/24/22
f 13/6/6 9/31/27 10/11/11
f 9/31/27 13/6/6 1/5/5
f 9/31/27 1/5/5 17/28/25
f 9/31/27 17/28/25 26/29/26
f 9/31/27 26/29/26 27/26/23
f 5/27/24 22/2/2 11/1/1
f 20/16/16 25/21/20 21/8/8
f 10/11/11 9/31/27 27/26/23
f 14/32/4 7/19/19 1/25/5
f 7/19/19 14/32/4 18/20/14
f 2/10/10 3/22/21 13/6/6
f 26/29/26 4/7/7 15/12/12
f 2/10/10 10/11/11 11/1/1
f 24/15/15 12/3/3 22/2/2
f 5/27/24 15/12/12 22/2/2
f 14/33/4 3/30/21 18/14/14
f 8/17/17 26/29/26 17/28/25
f 19/13/13 16/24/22 15/12/12
f 15/12/12 5/27/24 27/26/23
f 3/30/21 12/3/3 18/14/14
f 25/21/20 16/23/22 19/13/13
f 4/7/7 26/29/26 21/8/8
f 18/20/14 16/23/22 6/18/18
f 26/29/26 8/17/17 21/8/8
